<svg width="415" height="254" viewBox="0 0 415 254" fill="none" xmlns="http://www.w3.org/2000/svg">
<g clip-path="url(#clip0)">
<path d="M264.788 133.308C266.475 133.776 268.276 133.61 269.849 132.84C271.422 132.071 272.657 130.752 273.322 129.134C273.986 127.515 274.033 125.71 273.453 124.059C272.874 122.408 271.708 121.027 270.178 120.177L254.993 102.971L242.15 105.742L260.214 123.414C259.77 124.354 259.537 125.379 259.533 126.418C259.528 127.457 259.752 128.484 260.188 129.428C260.624 130.371 261.262 131.207 262.057 131.878C262.852 132.548 263.784 133.036 264.788 133.308L264.788 133.308Z" fill="#A0616A"/>
<path d="M214.831 71.7068L252.677 119.157L264.213 113.867L219.73 44.6934L214.831 71.7068Z" fill="#3F3D56"/>
<path d="M386.884 235.701C389.256 231.105 387.967 225.306 385.015 221.059C382.062 216.811 377.703 213.785 373.439 210.852L367.511 206.774L370.342 220.971C371.298 225.772 372.476 230.955 376.23 234.101C377.703 235.308 379.463 236.116 381.34 236.446C383.217 236.776 385.147 236.618 386.945 235.987" fill="#E6E6E6"/>
<path d="M386.436 253.175C386.406 253.283 386.333 253.375 386.235 253.431C386.137 253.487 386.021 253.501 385.912 253.472C385.805 253.439 385.714 253.367 385.659 253.269C385.603 253.172 385.587 253.057 385.614 252.948C385.944 250.544 386.272 248.138 386.427 245.716C386.685 241.711 386.446 237.6 384.962 233.83C383.618 230.439 381.231 227.562 378.145 225.614C377.682 225.322 378.11 224.586 378.575 224.879C380.359 226.002 381.933 227.426 383.226 229.089C385.664 232.228 386.86 236.055 387.234 239.974C387.655 244.387 387.038 248.809 386.438 253.175L386.436 253.175Z" fill="#F2F2F2"/>
<path d="M326.094 226.211C344.773 237.692 338.546 253.001 338.546 253.001L326.094 226.211Z" fill="#E6E6E6"/>
<path d="M362.804 241.905C348.103 241.811 346.204 252.722 346.204 252.722L362.804 241.905Z" fill="#E6E6E6"/>
<path d="M125.639 253.906C127.932 253.906 129.79 252.049 129.79 249.759C129.79 247.47 127.932 245.613 125.639 245.613C123.347 245.613 121.488 247.47 121.488 249.759C121.488 252.049 123.347 253.906 125.639 253.906Z" fill="#3F3D56"/>
<path d="M128.658 166.272C128.658 166.272 138.469 136.496 139.224 134.423C139.979 132.349 147.903 135.742 149.979 136.307C152.054 136.872 151.488 138.946 151.488 138.946L140.922 169.476L144.13 170.984L153.941 140.265C159.601 134.423 155.45 134.046 155.45 134.046C155.45 134.046 143.375 129.899 138.847 129.523C134.318 129.146 136.016 134.611 136.016 134.611L125.073 163.634L128.658 166.272Z" fill="#3F3D56"/>
<path d="M152.243 173.433L152.241 173.431C150.849 171.437 148.872 169.924 146.582 169.099C146.501 169.069 146.407 169.035 146.299 168.997C141.101 167.182 104.884 157.414 104.884 157.414C104.884 157.414 97.7146 154.776 94.5071 161.937C91.2996 169.099 72.243 228.464 72.243 228.464C72.243 228.464 109.515 248.373 120.381 250.54C121.051 250.701 121.744 250.756 122.431 250.702C124.278 250.446 126.096 250.013 127.86 249.407C129.81 248.772 131.665 247.877 133.375 246.744L154.507 183.61C154.507 183.61 157.526 176.637 152.243 173.433Z" fill="#E95E51"/>
<path d="M152.243 173.433L152.241 173.432C150.849 171.438 148.872 169.924 146.582 169.099C146.501 169.069 146.407 169.035 146.299 168.997C148.009 171.99 148.658 176.637 148.658 176.637C148.658 176.637 127.903 238.264 126.016 244.106C124.579 248.559 121.679 250.072 120.381 250.54C121.051 250.701 121.744 250.756 122.431 250.702C124.278 250.446 126.096 250.013 127.86 249.407C128.375 248.817 128.832 248.177 129.224 247.498C129.224 247.498 150.356 184.364 152.243 181.349C154.13 178.333 152.243 173.433 152.243 173.433Z" fill="#3F3D56"/>
<path d="M112.903 254C115.196 254 117.054 252.144 117.054 249.854C117.054 247.564 115.196 245.708 112.903 245.708C110.611 245.708 108.752 247.564 108.752 249.854C108.752 252.144 110.611 254 112.903 254Z" fill="#3F3D56"/>
<path d="M72.6204 236.568C74.9129 236.568 76.7713 234.711 76.7713 232.422C76.7713 230.132 74.9129 228.275 72.6204 228.275C70.3279 228.275 68.4694 230.132 68.4694 232.422C68.4694 234.711 70.3279 236.568 72.6204 236.568Z" fill="#3F3D56"/>
<path d="M145.787 136.946C144.117 137.474 142.312 137.372 140.712 136.659C139.113 135.946 137.831 134.672 137.11 133.078C136.388 131.484 136.277 129.681 136.797 128.011C137.317 126.341 138.433 124.919 139.932 124.015L154.493 106.279L167.427 108.592L150.005 126.896C150.483 127.819 150.751 128.835 150.793 129.874C150.834 130.912 150.647 131.946 150.245 132.904C149.843 133.863 149.235 134.721 148.465 135.419C147.695 136.118 146.78 136.639 145.787 136.946L145.787 136.946Z" fill="#A0616A"/>
<path d="M245.029 214.987L254.048 214.846L252.963 245.552H245.03L245.029 214.987Z" fill="#A0616A"/>
<path d="M243.006 242.965L258.63 242.965H258.631C261.272 242.965 263.804 244.013 265.671 245.878C267.539 247.743 268.588 250.272 268.588 252.91V253.233L243.007 253.234L243.006 242.965Z" fill="#2F2E41"/>
<path d="M185.309 206.843L195.162 213.161L175.453 236.845L168.777 232.563L185.309 206.843Z" fill="#A0616A"/>
<path d="M168.474 229.294L181.621 237.725L181.622 237.725C183.844 239.151 185.408 241.399 185.971 243.976C186.533 246.553 186.048 249.248 184.621 251.467L184.446 251.739L162.92 237.935L168.474 229.294Z" fill="#2F2E41"/>
<path d="M181.799 113.078C181.799 113.078 203.691 40.4507 210.727 39.4692C217.762 38.4878 229.098 58.1046 229.098 58.1046C243.796 76.8351 258.951 137.507 258.951 137.507C258.951 137.507 233.686 139.086 215.218 148.901C196.75 158.715 174.954 148.404 174.954 148.404L181.799 113.078Z" fill="#3F3D56"/>
<path opacity="0.1" d="M181.799 113.079C181.799 113.079 203.691 40.4513 210.727 39.4699C217.762 38.4884 226.219 58.3043 226.219 58.3043C233.543 88.5397 258.951 137.508 258.951 137.508C258.951 137.508 233.686 139.087 215.218 148.902C196.75 158.716 174.954 148.405 174.954 148.405L181.799 113.079Z" fill="black"/>
<path d="M199.76 91.3491V127.844L195.46 180.709L173.978 220.698L184.231 228.013L213.525 189.975L225.111 152.205L243.307 235.816L256.978 234.84L247.484 118.916L229.467 86.2861L199.76 91.3491Z" fill="#2F2E41"/>
<path d="M221.833 56.0505C228.668 62.8778 222.321 70.1929 222.321 70.1929L230.133 87.749L199.374 96.0393L188.625 48.0633L195.948 40.2606C210.596 39.7729 210.603 39.4697 210.603 39.4697C213.17 41.9782 221.833 56.0505 221.833 56.0505Z" fill="#CCCCCC"/>
<path d="M187.216 43.2177C184.674 45.0856 182.89 47.8064 182.193 50.8811C181.495 53.9559 181.931 57.1788 183.419 59.959C186.943 66.678 190.734 77.086 188.779 88.5119C185.242 109.19 173.904 124.901 167.589 129.946C165.39 131.703 165.313 134.26 165.636 136.097C166.538 141.227 171.518 147.049 174.962 148.217C175.194 148.293 175.437 148.332 175.682 148.329C181.278 148.331 195.043 130.529 210.862 95.7536C220.713 74.0959 213.563 56.7305 205.83 45.9763C204.815 44.5692 203.531 43.3772 202.051 42.4695C200.572 41.5617 198.927 40.9562 197.211 40.688C195.496 40.4198 193.744 40.4942 192.057 40.907C190.371 41.3198 188.783 42.0627 187.386 43.0927L187.216 43.2177Z" fill="#3F3D56"/>
<path d="M201.807 64.1554L157.386 122.373L145.668 117.496L187.656 46.7842L201.807 64.1554Z" fill="#3F3D56"/>
<path d="M214.984 33.1492H184.43C183.802 33.1485 183.199 32.8988 182.755 32.4549C182.311 32.011 182.061 31.4092 182.06 30.7814V17.6272C182.059 15.3116 182.514 13.0185 183.401 10.8789C184.287 8.73925 185.587 6.79501 187.225 5.15723C188.864 3.51946 190.81 2.22025 192.952 1.33385C195.093 0.447444 197.389 -0.00878906 199.707 -0.00878906C202.025 -0.00878906 204.321 0.447444 206.462 1.33385C208.604 2.22025 210.55 3.51946 212.189 5.15723C213.828 6.79501 215.127 8.73925 216.014 10.8789C216.9 13.0185 217.355 15.3116 217.354 17.6272V30.7814C217.354 31.4092 217.104 32.011 216.659 32.4549C216.215 32.8988 215.612 33.1485 214.984 33.1492Z" fill="#2F2E41"/>
<path d="M214.686 26.1185C218.114 19.8558 215.809 12.0036 209.539 8.58013C203.269 5.15664 195.408 7.45826 191.981 13.7209C188.553 19.9836 190.857 27.8358 197.127 31.2593C203.397 34.6828 211.259 32.3812 214.686 26.1185Z" fill="#A0616A"/>
<path d="M221.529 18.9419H202.846L202.655 16.2628L201.697 18.9419H198.82L198.441 13.6319L196.542 18.9419H190.976V18.6789C190.98 14.9821 192.452 11.4379 195.069 8.82393C197.686 6.20991 201.234 4.73953 204.935 4.73535H207.569C211.27 4.73952 214.819 6.20991 217.436 8.82392C220.053 11.4379 221.525 14.9821 221.529 18.6789V18.9419Z" fill="#2F2E41"/>
<path d="M202.694 35.6043C202.553 35.6042 202.413 35.5918 202.274 35.5674L188.594 33.1564V10.5732H203.653L203.28 11.0074C198.093 17.0502 202.001 26.8485 204.792 32.1514C204.998 32.5397 205.09 32.9783 205.057 33.4164C205.024 33.8546 204.868 34.2746 204.607 34.6281C204.388 34.9303 204.1 35.1764 203.768 35.3461C203.435 35.5158 203.067 35.6043 202.694 35.6043Z" fill="#2F2E41"/>
<path d="M0 253.512C0 253.383 0.0514386 253.259 0.143 253.167C0.234562 253.076 0.358747 253.024 0.488235 253.024H414.512C414.641 253.024 414.765 253.076 414.857 253.167C414.949 253.259 415 253.383 415 253.512C415 253.641 414.949 253.765 414.857 253.857C414.765 253.948 414.641 254 414.512 254H0.488235C0.358747 254 0.234562 253.948 0.143 253.857C0.0514386 253.765 0 253.641 0 253.512Z" fill="#CBCBCB"/>
</g>
<defs>
<clipPath id="clip0">
<rect width="415" height="254" fill="white"/>
</clipPath>
</defs>
</svg>
