<svg width="317" height="279" viewBox="0 0 317 279" fill="none" xmlns="http://www.w3.org/2000/svg">
<g clip-path="url(#clip0)">
<path d="M276.174 268.327V240.738C276.174 240.738 286.928 260.297 276.174 268.327Z" fill="#F1F1F1"/>
<path d="M276.838 268.321L256.51 249.664C256.51 249.664 278.194 254.971 276.838 268.321Z" fill="#F1F1F1"/>
<path d="M40.6108 268.327V240.738C40.6108 240.738 29.8565 260.297 40.6108 268.327Z" fill="#F1F1F1"/>
<path d="M39.9465 268.321L60.2748 249.664C60.2748 249.664 38.5901 254.971 39.9465 268.321Z" fill="#F1F1F1"/>
<path d="M225.354 63.7084H223.881V23.3553C223.881 20.2882 223.277 17.2512 222.103 14.4176C220.929 11.584 219.208 9.00936 217.039 6.84062C214.87 4.67188 212.294 2.95154 209.46 1.77782C206.626 0.604107 203.588 2.50421e-06 200.52 0H115.006C111.939 -6.51077e-06 108.901 0.60409 106.067 1.7778C103.232 2.9515 100.657 4.67183 98.4878 6.84057C96.3185 9.00931 94.5978 11.584 93.4238 14.4176C92.2498 17.2512 91.6455 20.2882 91.6455 23.3552V244.736C91.6455 250.93 94.1067 256.87 98.4877 261.25C102.869 265.63 108.811 268.091 115.006 268.091H200.52C206.716 268.091 212.658 265.63 217.039 261.25C221.42 256.87 223.881 250.93 223.881 244.736V92.4325H225.354V63.7084Z" fill="#3F3D56"/>
<path d="M201.463 6.07618H190.3C190.814 7.3344 191.01 8.69952 190.871 10.0513C190.732 11.403 190.263 12.7 189.505 13.8278C188.747 14.9556 187.723 15.8797 186.524 16.5188C185.324 17.1578 183.986 17.492 182.627 17.4921H133.637C132.278 17.492 130.939 17.1578 129.74 16.5188C128.54 15.8798 127.516 14.9556 126.758 13.8278C126 12.7 125.531 11.403 125.392 10.0513C125.254 8.69951 125.45 7.33439 125.963 6.07617H115.537C110.91 6.07617 106.473 7.91374 103.201 11.1846C99.9296 14.4556 98.0916 18.8919 98.0916 23.5176V244.573C98.0916 246.864 98.5428 249.132 99.4195 251.248C100.296 253.364 101.581 255.287 103.201 256.906C104.821 258.526 106.744 259.811 108.861 260.687C110.978 261.564 113.246 262.015 115.537 262.015H201.463C203.754 262.015 206.022 261.564 208.139 260.687C210.256 259.811 212.179 258.526 213.799 256.906C215.419 255.287 216.704 253.364 217.581 251.248C218.457 249.132 218.908 246.864 218.908 244.573V23.5176C218.908 21.2272 218.457 18.9592 217.581 16.8431C216.704 14.727 215.419 12.8042 213.799 11.1847C212.179 9.56507 210.256 8.28034 208.139 7.40383C206.022 6.52731 203.754 6.07618 201.463 6.07618Z" fill="white"/>
<path d="M199.31 258.219H117.69C108.311 258.219 100.681 251.411 100.681 243.042V232.054C100.681 225.384 106.758 219.958 114.226 219.958H202.774C210.242 219.958 216.319 225.384 216.319 232.054V243.042C216.319 251.411 208.689 258.219 199.31 258.219Z" fill="#E5E5E5"/>
<path d="M126.27 73.5467H108.063C107.737 73.5464 107.424 73.4166 107.194 73.1861C106.963 72.9555 106.833 72.6429 106.833 72.3169V54.1146C106.833 53.7886 106.963 53.476 107.194 53.2454C107.424 53.0149 107.737 52.8851 108.063 52.8848H126.27C126.596 52.8851 126.908 53.0149 127.139 53.2454C127.37 53.476 127.499 53.7886 127.5 54.1146V72.3169C127.499 72.6429 127.37 72.9555 127.139 73.1861C126.908 73.4166 126.596 73.5464 126.27 73.5467Z" fill="#E95E51"/>
<path d="M153.825 73.5467H135.619C135.293 73.5464 134.98 73.4166 134.749 73.1861C134.519 72.9555 134.389 72.6429 134.389 72.3169V54.1146C134.389 53.7886 134.519 53.476 134.749 53.2454C134.98 53.0148 135.293 52.8851 135.619 52.8848H153.825C154.151 52.8851 154.464 53.0148 154.695 53.2454C154.925 53.476 155.055 53.7886 155.056 54.1146V72.3169C155.055 72.6429 154.925 72.9555 154.695 73.1861C154.464 73.4166 154.151 73.5464 153.825 73.5467Z" fill="#E5E5E5"/>
<path d="M181.381 73.5467H163.175C162.848 73.5464 162.536 73.4166 162.305 73.1861C162.075 72.9555 161.945 72.6429 161.944 72.3169V54.1146C161.945 53.7886 162.075 53.476 162.305 53.2454C162.536 53.0148 162.848 52.8851 163.175 52.8848H181.381C181.707 52.8851 182.02 53.0148 182.251 53.2454C182.481 53.476 182.611 53.7886 182.611 54.1146V72.3169C182.611 72.6429 182.481 72.9555 182.251 73.1861C182.02 73.4166 181.707 73.5464 181.381 73.5467Z" fill="#E5E5E5"/>
<path d="M208.937 73.5467H190.73C190.404 73.5464 190.092 73.4166 189.861 73.1861C189.63 72.9555 189.501 72.6429 189.5 72.3169V54.1146C189.501 53.7886 189.63 53.476 189.861 53.2454C190.092 53.0149 190.404 52.8851 190.73 52.8848H208.937C209.263 52.8851 209.576 53.0149 209.806 53.2454C210.037 53.476 210.167 53.7886 210.167 54.1146V72.3169C210.167 72.6429 210.037 72.9555 209.806 73.1861C209.576 73.4166 209.263 73.5464 208.937 73.5467Z" fill="#E5E5E5"/>
<path d="M126.204 107.245H107.998C107.672 107.245 107.359 107.115 107.128 106.885C106.898 106.654 106.768 106.342 106.768 106.016V87.8134C106.768 87.4873 106.898 87.1747 107.128 86.9441C107.359 86.7136 107.672 86.5839 107.998 86.5835H126.204C126.531 86.5839 126.843 86.7136 127.074 86.9441C127.304 87.1747 127.434 87.4873 127.435 87.8134V106.016C127.434 106.342 127.304 106.654 127.074 106.885C126.843 107.115 126.531 107.245 126.204 107.245Z" fill="#E5E5E5"/>
<path d="M153.76 107.245H135.554C135.228 107.245 134.915 107.115 134.684 106.885C134.454 106.654 134.324 106.342 134.324 106.016V87.8134C134.324 87.4873 134.454 87.1747 134.684 86.9441C134.915 86.7136 135.228 86.5839 135.554 86.5835H153.76C154.086 86.5839 154.399 86.7136 154.63 86.9441C154.86 87.1747 154.99 87.4873 154.99 87.8134V106.016C154.99 106.342 154.86 106.654 154.63 106.885C154.399 107.115 154.086 107.245 153.76 107.245Z" fill="#E5E5E5"/>
<path d="M181.316 107.245H163.11C162.783 107.245 162.471 107.115 162.24 106.885C162.009 106.654 161.88 106.342 161.879 106.016V87.8134C161.88 87.4873 162.009 87.1747 162.24 86.9441C162.471 86.7136 162.783 86.5839 163.11 86.5835H181.316C181.642 86.5839 181.955 86.7136 182.185 86.9441C182.416 87.1747 182.546 87.4873 182.546 87.8134V106.016C182.546 106.342 182.416 106.654 182.185 106.885C181.955 107.115 181.642 107.245 181.316 107.245Z" fill="#E95E51"/>
<path d="M208.872 107.245H190.665C190.339 107.245 190.027 107.115 189.796 106.885C189.565 106.654 189.436 106.342 189.435 106.016V87.8134C189.436 87.4873 189.565 87.1747 189.796 86.9441C190.027 86.7136 190.339 86.5839 190.665 86.5835H208.872C209.198 86.5839 209.511 86.7136 209.741 86.9441C209.972 87.1747 210.102 87.4873 210.102 87.8134V106.016C210.102 106.342 209.972 106.654 209.741 106.885C209.511 107.115 209.198 107.245 208.872 107.245Z" fill="#E95E51"/>
<path d="M126.139 140.944H107.933C107.607 140.944 107.294 140.814 107.063 140.584C106.833 140.353 106.703 140.04 106.703 139.714V121.512C106.703 121.186 106.833 120.873 107.063 120.643C107.294 120.412 107.607 120.283 107.933 120.282H126.139C126.465 120.283 126.778 120.412 127.009 120.643C127.239 120.873 127.369 121.186 127.37 121.512V139.714C127.369 140.04 127.239 140.353 127.009 140.584C126.778 140.814 126.465 140.944 126.139 140.944Z" fill="#E5E5E5"/>
<path d="M153.695 140.944H135.489C135.162 140.944 134.85 140.814 134.619 140.584C134.389 140.353 134.259 140.04 134.258 139.714V121.512C134.259 121.186 134.389 120.873 134.619 120.643C134.85 120.412 135.162 120.283 135.489 120.282H153.695C154.021 120.283 154.334 120.412 154.565 120.643C154.795 120.873 154.925 121.186 154.925 121.512V139.714C154.925 140.04 154.795 140.353 154.565 140.584C154.334 140.814 154.021 140.944 153.695 140.944Z" fill="#E5E5E5"/>
<path d="M181.251 140.944H163.044C162.718 140.944 162.406 140.814 162.175 140.584C161.944 140.353 161.815 140.04 161.814 139.714V121.512C161.815 121.186 161.944 120.873 162.175 120.643C162.406 120.412 162.718 120.283 163.044 120.282H181.251C181.577 120.283 181.89 120.412 182.12 120.643C182.351 120.873 182.481 121.186 182.481 121.512V139.714C182.481 140.04 182.351 140.353 182.12 140.584C181.89 140.814 181.577 140.944 181.251 140.944Z" fill="#E5E5E5"/>
<path d="M208.807 140.944H190.6C190.274 140.944 189.961 140.814 189.731 140.584C189.5 140.353 189.37 140.04 189.37 139.714V121.512C189.37 121.186 189.5 120.873 189.731 120.643C189.961 120.412 190.274 120.283 190.6 120.282H208.807C209.133 120.283 209.446 120.412 209.676 120.643C209.907 120.873 210.037 121.186 210.037 121.512V139.714C210.037 140.04 209.907 140.353 209.676 140.584C209.446 140.814 209.133 140.944 208.807 140.944Z" fill="#E5E5E5"/>
<path d="M126.074 174.642H107.868C107.541 174.642 107.229 174.512 106.998 174.282C106.768 174.051 106.638 173.739 106.637 173.413V155.21C106.638 154.884 106.768 154.572 106.998 154.341C107.229 154.111 107.541 153.981 107.868 153.98H126.074C126.4 153.981 126.713 154.111 126.944 154.341C127.174 154.572 127.304 154.884 127.304 155.21V173.413C127.304 173.739 127.174 174.051 126.944 174.282C126.713 174.512 126.4 174.642 126.074 174.642Z" fill="#E5E5E5"/>
<path d="M153.63 174.642H135.423C135.097 174.642 134.785 174.512 134.554 174.282C134.323 174.051 134.194 173.739 134.193 173.413V155.21C134.194 154.884 134.323 154.572 134.554 154.341C134.785 154.111 135.097 153.981 135.423 153.98H153.63C153.956 153.981 154.269 154.111 154.499 154.341C154.73 154.572 154.86 154.884 154.86 155.21V173.413C154.86 173.739 154.73 174.051 154.499 174.282C154.269 174.512 153.956 174.642 153.63 174.642Z" fill="#E5E5E5"/>
<path d="M181.186 174.642H162.979C162.653 174.642 162.34 174.512 162.11 174.282C161.879 174.051 161.749 173.739 161.749 173.413V155.21C161.749 154.884 161.879 154.572 162.11 154.341C162.34 154.111 162.653 153.981 162.979 153.98H181.186C181.512 153.981 181.825 154.111 182.055 154.341C182.286 154.572 182.416 154.884 182.416 155.21V173.413C182.416 173.739 182.286 174.051 182.055 174.282C181.825 174.512 181.512 174.642 181.186 174.642Z" fill="#E5E5E5"/>
<path d="M208.742 174.642H190.535C190.209 174.642 189.896 174.512 189.666 174.282C189.435 174.051 189.305 173.739 189.305 173.413V155.21C189.305 154.884 189.435 154.572 189.666 154.341C189.896 154.111 190.209 153.981 190.535 153.98H208.742C209.068 153.981 209.38 154.111 209.611 154.341C209.842 154.572 209.971 154.884 209.972 155.21V173.413C209.971 173.739 209.842 174.051 209.611 174.282C209.38 174.512 209.068 174.642 208.742 174.642Z" fill="#E5E5E5"/>
<path d="M126.27 249.911H108.063C107.737 249.911 107.424 249.781 107.194 249.551C106.963 249.32 106.833 249.008 106.833 248.682V230.479C106.833 230.153 106.963 229.841 107.194 229.61C107.424 229.38 107.737 229.25 108.063 229.25H126.27C126.596 229.25 126.908 229.38 127.139 229.61C127.37 229.841 127.499 230.153 127.5 230.479V248.682C127.499 249.008 127.37 249.32 127.139 249.551C126.908 249.781 126.596 249.911 126.27 249.911Z" fill="white"/>
<path d="M153.825 249.911H135.619C135.293 249.911 134.98 249.781 134.749 249.551C134.519 249.32 134.389 249.008 134.389 248.682V230.479C134.389 230.153 134.519 229.841 134.749 229.61C134.98 229.38 135.293 229.25 135.619 229.25H153.825C154.151 229.25 154.464 229.38 154.695 229.61C154.925 229.841 155.055 230.153 155.056 230.479V248.682C155.055 249.008 154.925 249.32 154.695 249.551C154.464 249.781 154.152 249.911 153.825 249.911Z" fill="white"/>
<path d="M181.381 249.911H163.175C162.848 249.911 162.536 249.781 162.305 249.551C162.075 249.32 161.945 249.008 161.944 248.682V230.479C161.945 230.153 162.075 229.841 162.305 229.61C162.536 229.38 162.848 229.25 163.175 229.25H181.381C181.707 229.25 182.02 229.38 182.251 229.61C182.481 229.841 182.611 230.153 182.611 230.479V248.682C182.611 249.008 182.481 249.32 182.251 249.551C182.02 249.781 181.707 249.911 181.381 249.911Z" fill="white"/>
<path d="M208.937 249.911H190.73C190.404 249.911 190.092 249.781 189.861 249.551C189.63 249.32 189.501 249.008 189.5 248.682V230.479C189.501 230.153 189.63 229.841 189.861 229.61C190.092 229.38 190.404 229.25 190.73 229.25H208.937C209.263 229.25 209.576 229.38 209.806 229.61C210.037 229.841 210.167 230.153 210.167 230.479V248.682C210.167 249.008 210.037 249.32 209.806 249.551C209.576 249.781 209.263 249.911 208.937 249.911Z" fill="white"/>
<path d="M149.578 211.539C150.936 211.539 152.038 210.438 152.038 209.079C152.038 207.721 150.936 206.62 149.578 206.62C148.219 206.62 147.117 207.721 147.117 209.079C147.117 210.438 148.219 211.539 149.578 211.539Z" fill="#E5E5E5"/>
<path d="M158.435 211.539C159.794 211.539 160.895 210.438 160.895 209.079C160.895 207.721 159.794 206.62 158.435 206.62C157.076 206.62 155.975 207.721 155.975 209.079C155.975 210.438 157.076 211.539 158.435 211.539Z" fill="#E5E5E5"/>
<path d="M167.292 211.539C168.651 211.539 169.752 210.438 169.752 209.079C169.752 207.721 168.651 206.62 167.292 206.62C165.933 206.62 164.832 207.721 164.832 209.079C164.832 210.438 165.933 211.539 167.292 211.539Z" fill="#E5E5E5"/>
<path d="M316.619 268.49H0.381468C0.280296 268.49 0.183268 268.45 0.111729 268.378C0.04019 268.307 0 268.21 0 268.108C0 268.007 0.04019 267.91 0.111729 267.839C0.183268 267.767 0.280296 267.727 0.381468 267.727H316.619C316.72 267.727 316.817 267.767 316.888 267.839C316.96 267.91 317 268.007 317 268.108C317 268.21 316.96 268.307 316.888 268.378C316.817 268.45 316.72 268.49 316.619 268.49Z" fill="#CBCBCB"/>
<path d="M124.497 193.397C125.012 192.883 125.408 192.262 125.656 191.578C125.905 190.894 126.001 190.164 125.937 189.44C125.873 188.715 125.651 188.013 125.286 187.383C124.921 186.754 124.423 186.212 123.826 185.795L128.631 168.775L119.871 171.56L116.651 187.296C116.018 188.345 115.792 189.59 116.016 190.794C116.239 191.998 116.897 193.079 117.864 193.831C118.831 194.583 120.041 194.954 121.263 194.874C122.486 194.794 123.637 194.269 124.497 193.397Z" fill="#FFB7B7"/>
<path d="M126.988 182.965C126.832 182.995 126.673 183.008 126.513 183.005L118.11 182.837C117.794 182.83 117.482 182.757 117.197 182.621C116.911 182.485 116.658 182.289 116.453 182.048C116.249 181.806 116.099 181.524 116.012 181.22C115.925 180.916 115.905 180.597 115.951 180.284L124.476 122.7C124.73 121.034 125.572 119.514 126.849 118.415C128.127 117.316 129.755 116.709 131.44 116.706C132.504 116.708 133.554 116.953 134.51 117.42C135.466 117.888 136.303 118.566 136.958 119.405C137.613 120.243 138.069 121.22 138.291 122.26C138.514 123.3 138.497 124.378 138.242 125.411L132.199 149.878L128.772 181.022C128.723 181.494 128.522 181.938 128.201 182.288C127.88 182.638 127.455 182.875 126.988 182.965Z" fill="#3F3D56"/>
<path d="M130.502 273.869H135.179L137.404 255.834L130.501 255.835L130.502 273.869Z" fill="#FFB7B7"/>
<path d="M129.309 272.343L138.519 272.342H138.52C140.077 272.342 141.569 272.961 142.67 274.061C143.771 275.162 144.389 276.654 144.389 278.21V278.401L129.31 278.401L129.309 272.343Z" fill="#2F2E41"/>
<path d="M150.444 272.351L155.092 272.872L159.313 255.198L152.454 254.429L150.444 272.351Z" fill="#FFB7B7"/>
<path d="M149.429 270.701L158.582 271.727L158.582 271.727C160.129 271.9 161.543 272.681 162.515 273.897C163.486 275.113 163.934 276.665 163.761 278.212L163.739 278.402L148.754 276.722L149.429 270.701Z" fill="#2F2E41"/>
<path d="M126.113 173.51C126.113 173.51 119.701 187.7 125.363 196.917L128.736 268.68H136.481L143.995 210.711L157.347 227.873L149.212 267.928L158.685 268.46L171.842 227.873C171.842 227.873 161.734 183.119 158.396 182.041L156.202 171.811L126.113 173.51Z" fill="#2F2E41"/>
<path d="M123.259 185.968C123.259 185.968 117.483 192.596 132.742 194.884C148.001 197.172 164.022 193.74 164.404 189.163C164.785 184.587 123.259 185.968 123.259 185.968Z" fill="#CBCBCB"/>
<path d="M199.75 103.755C199.726 104.402 199.561 105.036 199.266 105.612C198.971 106.188 198.553 106.693 198.041 107.09C197.53 107.487 196.938 107.767 196.307 107.911C195.675 108.055 195.02 108.058 194.387 107.921L188.619 116.237L182.71 113.965L191.02 102.336C191.32 101.289 191.995 100.388 192.916 99.8038C193.836 99.22 194.939 98.9942 196.015 99.169C197.091 99.3439 198.066 99.9073 198.754 100.752C199.442 101.598 199.797 102.666 199.75 103.755Z" fill="#FFB7B7"/>
<path d="M150.971 114.454L142.816 110.766L132.368 111.512C132.368 111.512 119.772 126.236 124.731 140.347L121.679 189.545C141.134 194.884 149.978 184.87 164.022 189.163L159.684 134.485L150.971 114.454Z" fill="#3F3D56"/>
<path d="M145.521 118.036L150.971 114.454C150.971 114.454 158.542 113.31 161.568 116.245C161.568 116.245 171.84 117.105 174.321 119.668L177.052 120.284L186.126 108.537L191.679 111.553L183.668 133.292L159.684 134.485L145.521 118.036Z" fill="#3F3D56"/>
<path d="M147.402 106.628C153.64 103.219 155.932 95.3994 152.522 89.1627C149.112 82.9261 141.291 80.6341 135.053 84.0433C128.815 87.4526 126.522 95.2721 129.932 101.509C133.342 107.745 141.164 110.037 147.402 106.628Z" fill="#FFB7B7"/>
<path d="M130.093 85.2745C132.391 81.1428 135.262 78.4675 139.99 78.5641C144.717 78.6606 148.807 78.4738 150.934 82.6958C151.496 81.6435 151.777 80.4641 151.751 79.2714C152.393 79.6883 152.9 80.284 153.207 80.985C153.515 81.6861 153.611 82.4618 153.483 83.2166C153.896 82.9744 154.243 82.6321 154.49 82.2213C154.737 81.8105 154.877 81.3443 154.897 80.8653C156.475 81.3903 156.885 83.6132 156.087 85.0715C155.288 86.5298 153.723 87.3731 152.22 88.0859C150.718 88.7988 151.412 92.5691 150.431 93.9114C149.746 94.8482 149.433 95.9963 148.972 97.061C148.952 97.103 148.92 97.1373 148.878 97.1585C147.821 97.7481 147.153 98.8016 147.34 99.9979C147.362 100.088 147.357 100.182 147.325 100.269C145.986 102.791 144.54 105.429 142.113 106.934C140.166 108.11 137.833 108.471 135.621 107.938C133.14 107.345 130.996 105.7 129.449 103.672C127.902 101.644 126.908 99.2471 126.16 96.8089C125.497 94.6459 125.015 92.3333 125.541 90.133C126.066 87.9326 127.847 85.8951 130.104 85.7251" fill="#2F2E41"/>
</g>
<defs>
<clipPath id="clip0">
<rect width="317" height="278.402" fill="white"/>
</clipPath>
</defs>
</svg>
