<svg width="308" height="312" viewBox="0 0 308 312" fill="none" xmlns="http://www.w3.org/2000/svg">
<g clip-path="url(#clip0)">
<path d="M129.851 143.799L241.059 143.6C241.257 143.6 241.448 143.522 241.589 143.381C241.729 143.241 241.808 143.05 241.808 142.851C241.808 142.653 241.729 142.462 241.589 142.322C241.448 142.181 241.257 142.103 241.059 142.103L129.851 142.301C129.652 142.301 129.462 142.38 129.321 142.52C129.18 142.661 129.101 142.851 129.101 143.05C129.101 143.248 129.18 143.439 129.321 143.579C129.462 143.72 129.652 143.799 129.851 143.799Z" fill="#3F3D56"/>
<path d="M128.19 154.284C133.985 154.284 138.683 149.59 138.683 143.799C138.683 138.008 133.985 133.313 128.19 133.313C122.394 133.313 117.697 138.008 117.697 143.799C117.697 149.59 122.394 154.284 128.19 154.284Z" fill="#3F3D56"/>
<path d="M236.074 143.746C221.848 143.746 207.942 139.531 196.113 131.633C184.285 123.736 175.066 112.511 169.622 99.3775C164.178 86.2445 162.754 71.7932 165.529 57.8512C168.304 43.9093 175.155 31.1027 185.214 21.0511C195.273 10.9995 208.089 4.15428 222.041 1.38105C235.994 -1.39218 250.456 0.0311432 263.599 5.47104C276.741 10.9109 287.975 20.1231 295.878 31.9425C303.782 43.762 308 57.6578 308 71.873C307.978 90.9282 300.394 109.197 286.909 122.671C273.425 136.145 255.143 143.724 236.074 143.746ZM236.074 4.95679C222.829 4.95679 209.882 8.88135 198.869 16.2342C187.857 23.587 179.274 34.0379 174.205 46.2652C169.137 58.4926 167.81 71.9472 170.394 84.9277C172.978 97.9081 179.356 109.831 188.721 119.19C198.087 128.548 210.019 134.921 223.009 137.503C235.999 140.085 249.464 138.76 261.7 133.695C273.937 128.631 284.395 120.054 291.754 109.05C299.112 98.0453 303.04 85.1077 303.04 71.873C303.019 54.1319 295.958 37.1232 283.403 24.5783C270.849 12.0335 253.828 4.97693 236.074 4.95679Z" fill="#3F3D56"/>
<path d="M267.109 100.671C264.476 100.673 261.902 99.8945 259.712 98.4344C257.522 96.9744 255.815 94.8982 254.806 92.4684C253.797 90.0386 253.531 87.3644 254.043 84.7839C254.555 82.2034 255.821 79.8326 257.682 77.9712C259.542 76.1097 261.913 74.8414 264.494 74.3264C267.076 73.8114 269.753 74.073 272.186 75.0781C274.619 76.0832 276.699 77.7865 278.163 79.9729C279.627 82.1592 280.409 84.7303 280.411 87.361C280.412 90.8882 279.011 94.2715 276.517 96.7673C274.023 99.2631 270.639 100.667 267.109 100.671ZM236.073 100.671C232.547 100.667 229.166 99.2655 226.672 96.7736C224.178 94.2818 222.776 90.9033 222.771 87.3793V56.3668C222.771 52.8416 224.173 49.4606 226.668 46.9679C229.162 44.4751 232.546 43.0747 236.074 43.0747C239.601 43.0747 242.985 44.4751 245.48 46.9679C247.974 49.4606 249.376 52.8416 249.376 56.3668V87.3793C249.371 90.9034 247.969 94.2819 245.475 96.7738C242.981 99.2656 239.6 100.667 236.073 100.671ZM205.047 100.671C201.518 100.667 198.134 99.2644 195.639 96.7707C193.144 94.2771 191.74 90.8962 191.736 87.3697V74.9792C191.736 71.4515 193.138 68.0682 195.635 65.5738C198.131 63.0793 201.517 61.6779 205.047 61.6779C208.578 61.6779 211.963 63.0793 214.46 65.5738C216.956 68.0682 218.358 71.4515 218.358 74.9792V87.3697C218.354 90.8963 216.951 94.2772 214.455 96.7709C211.96 99.2645 208.576 100.667 205.047 100.671Z" fill="#E95E51"/>
<path d="M19.3814 247.901V249.107C19.3831 251.104 20.178 253.02 21.5916 254.432C23.0051 255.845 24.9218 256.639 26.9208 256.641H90.8549C92.8542 256.64 94.7715 255.846 96.1852 254.433C97.599 253.021 98.3936 251.105 98.3943 249.107V247.901C98.398 246.139 97.7785 244.431 96.6449 243.08C96.2677 242.631 95.8408 242.227 95.3724 241.874H62.2111C61.8112 241.874 61.4277 241.716 61.145 241.433C60.8622 241.15 60.7033 240.767 60.7032 240.368H26.9208C24.9221 240.37 23.006 241.165 21.5927 242.577C20.1794 243.99 19.3842 245.904 19.3814 247.901Z" fill="#3F3D56"/>
<path d="M54.6687 311.79H62.5096L62.5096 256.341H54.6687L54.6687 311.79Z" fill="#3F3D56"/>
<path d="M32.3521 311.515C32.3521 312.362 44.2338 311.842 58.8907 311.842C73.5477 311.842 85.4294 312.362 85.4294 311.515C85.4294 310.668 73.5477 303.955 58.8907 303.955C44.2338 303.955 32.3521 310.668 32.3521 311.515Z" fill="#3F3D56"/>
<path d="M31.6857 246.63L58.4414 250.897L89.5279 255.857L100.306 257.575C101.341 257.738 102.398 257.485 103.246 256.87C104.094 256.256 104.664 255.33 104.83 254.296L105.318 251.247L105.771 248.408L106.145 246.07C106.229 245.547 106.206 245.012 106.078 244.498C105.949 243.984 105.718 243.502 105.397 243.08C105.018 242.561 104.513 242.147 103.931 241.875H62.2111C61.8112 241.875 61.4277 241.716 61.145 241.433C60.8622 241.151 60.7033 240.768 60.7032 240.368V239.181C60.7033 238.781 60.8622 238.398 61.145 238.115C61.4277 237.833 61.8112 237.674 62.2111 237.674H78.6049L71.0472 236.468L47.8138 232.762L34.2491 230.598C33.2118 230.434 32.1518 230.688 31.3015 231.303C30.4512 231.919 29.88 232.847 29.7134 233.883L28.3984 242.104C28.2379 243.139 28.4933 244.196 29.109 245.043C29.7248 245.891 30.6509 246.462 31.6857 246.63Z" fill="#E95E51"/>
<path d="M89.5278 245.485V291.417C89.5293 292.463 89.946 293.466 90.6866 294.206C91.4271 294.946 92.4311 295.363 93.4784 295.364H101.82C102.867 295.363 103.871 294.947 104.612 294.207C105.353 293.466 105.769 292.463 105.771 291.417V245.485C105.772 244.613 105.481 243.767 104.944 243.08C104.547 242.552 104.019 242.137 103.412 241.875H91.8801C91.2762 242.139 90.7507 242.554 90.3542 243.08C89.8182 243.767 89.5273 244.613 89.5278 245.485Z" fill="#E95E51"/>
<path d="M64.3884 167.742C64.4308 168.152 64.5366 168.552 64.702 168.929C64.9532 169.505 65.3402 170.012 65.83 170.406L65.8482 170.418L89.6486 189.711L89.9981 189.988L94.9261 193.984L96.4158 195.189H122.188L120.705 193.984L100.336 177.47L86.687 166.404L76.0656 157.797C75.444 157.291 74.6818 156.988 73.8821 156.929C73.879 156.926 73.8747 156.924 73.87 156.923C73.6329 156.906 73.3947 156.91 73.1582 156.935C72.8043 156.971 72.4571 157.056 72.1269 157.189C71.9011 157.27 71.6863 157.38 71.4875 157.514C71.1125 157.743 70.7799 158.034 70.5044 158.376L65.3293 164.747L65.251 164.849C64.9229 165.25 64.6777 165.713 64.5297 166.209C64.3816 166.706 64.3336 167.227 64.3884 167.742Z" fill="#E95E51"/>
<path d="M65.8483 170.418C66.2967 171.539 66.9491 172.567 67.7723 173.45L83.6171 190.458C84 190.81 84.4486 191.082 84.9371 191.26C85.4256 191.438 85.9445 191.518 86.4639 191.495C86.9833 191.472 87.4931 191.346 87.964 191.126C88.4349 190.906 88.8576 190.595 89.208 190.211L89.6486 189.711L89.8415 189.494L96.6873 181.821L99.6307 178.519C99.8264 178.315 99.9965 178.088 100.137 177.844C100.21 177.723 100.276 177.596 100.336 177.47C100.583 176.907 100.697 176.294 100.668 175.68C100.648 175.157 100.523 174.644 100.3 174.171C100.077 173.698 99.7613 173.274 99.3712 172.926L80.9992 158.895C78.972 157.341 76.4198 156.637 73.8821 156.93C73.879 156.926 73.8747 156.924 73.8701 156.924C73.3064 156.994 72.7496 157.111 72.2052 157.273C71.964 157.34 71.729 157.424 71.4875 157.514C69.9299 158.1 68.5489 159.075 67.4766 160.347C66.3101 161.717 65.5415 163.38 65.2544 165.155C64.9673 166.931 65.1727 168.751 65.8483 170.418V170.418Z" fill="#2F2E41"/>
<path d="M58.3247 142.922C75.0209 142.922 88.5559 129.397 88.5559 112.714C88.5559 96.0298 75.0209 82.5049 58.3247 82.5049C41.6284 82.5049 28.0934 96.0298 28.0934 112.714C28.0934 129.397 41.6284 142.922 58.3247 142.922Z" fill="#E95E51"/>
<path d="M50.2747 242.465L61.4872 244.249L61.7407 244.291L78.7857 247.009L89.5278 248.727L105.318 251.246L105.771 251.319L108.117 251.692L118.895 253.41C119.93 253.573 120.987 253.32 121.835 252.705C122.683 252.091 123.253 251.165 123.419 250.131L124.36 244.249L124.734 241.911C124.734 241.899 124.74 241.886 124.74 241.874H62.2111C61.8112 241.874 61.4277 241.715 61.145 241.433C60.8622 241.15 60.7033 240.767 60.7032 240.368V239.18C60.7033 238.781 60.8622 238.398 61.145 238.115C61.4277 237.833 61.8112 237.674 62.2111 237.674H81.9702V231.086L80.7639 230.893L74.8048 229.941L52.8322 226.439C51.7965 226.275 50.7379 226.528 49.8886 227.142C49.0393 227.757 48.4688 228.683 48.3024 229.718L47.8138 232.762L46.9874 237.945C46.8255 238.98 47.0806 240.036 47.6967 240.883C48.3128 241.731 49.2398 242.299 50.2747 242.465Z" fill="#E95E51"/>
<path d="M17.1797 215.778C17.1797 240.404 19.683 255.134 58.2847 250.915C58.3389 250.909 58.3872 250.903 58.4414 250.897C65.3263 250.217 72.1355 248.916 78.7857 247.01C82.2417 246.001 85.6005 244.686 88.8222 243.08C89.582 242.694 90.3118 242.29 91.0298 241.875H62.2111C61.8112 241.874 61.4277 241.716 61.145 241.433C60.8622 241.151 60.7033 240.767 60.7032 240.368V239.181C60.7033 238.781 60.8622 238.398 61.145 238.115C61.4277 237.833 61.8112 237.674 62.2111 237.674H81.9702V199.607C81.9719 198.436 82.4383 197.313 83.267 196.485C84.0958 195.657 85.2193 195.191 86.3914 195.189H102.466C102.327 194.791 102.188 194.388 102.037 193.984C100.529 189.814 98.7419 185.751 96.6873 181.821C93.8726 176.364 90.5227 171.2 86.687 166.404C84.0161 163.062 81.0176 159.995 77.7363 157.249C71.6866 152.259 65.1002 149.173 58.4172 149.173C33.7725 149.173 17.1797 191.151 17.1797 215.778Z" fill="#2F2E41"/>
<path d="M57.6895 123.91L57.6581 122.781C59.7598 122.723 61.6127 122.591 63.005 121.575C63.3997 121.27 63.7242 120.884 63.9563 120.443C64.1884 120.002 64.3227 119.516 64.3501 119.019C64.3746 118.715 64.3286 118.409 64.2156 118.126C64.1027 117.842 63.9259 117.589 63.6989 117.385C62.7747 116.605 61.2875 116.857 60.2035 117.354L59.2688 117.782L61.0613 104.692L62.1806 104.846L60.6559 115.98C62.1287 115.548 63.4934 115.734 64.4282 116.523C64.7871 116.836 65.0687 117.228 65.251 117.667C65.4333 118.107 65.5113 118.583 65.479 119.058C65.446 119.727 65.2672 120.38 64.9549 120.972C64.6426 121.564 64.2045 122.081 63.6713 122.486C61.8824 123.793 59.5576 123.858 57.6895 123.91Z" fill="#2F2E41"/>
<path d="M73.8003 105.806H67.7159V106.935H73.8003V105.806Z" fill="#2F2E41"/>
<path d="M54.5949 105.806H48.5104V106.935H54.5949V105.806Z" fill="#2F2E41"/>
<path d="M34.1976 104.413C36.5488 100.877 40.6858 99.3778 44.7654 99.0131C49.3573 98.6026 53.7943 99.4874 58.2775 100.347C63.2116 101.293 68.4335 102.178 73.4051 100.982C75.6045 100.474 77.6597 99.4731 79.4157 98.0556C81.1717 96.6381 82.5827 94.8407 83.5424 92.7989C85.3627 88.8154 85.7549 84.3271 84.6531 80.0887C83.4881 75.5808 80.5963 71.6144 77.0907 68.6185C69.9356 62.5039 60.2531 59.7559 50.9401 60.0147C41.6624 60.254 32.6954 63.4046 25.3095 69.0202C17.9113 74.8385 12.7052 82.9908 10.5411 92.1465C8.27807 101.227 9.01527 110.795 12.6426 119.423C14.6805 124.147 17.6279 128.406 19.9023 133.011C22.0198 137.299 23.6506 142.284 22.3331 147.066C21.1769 151.263 17.7826 154.991 13.5214 156.13C11.5826 156.638 9.53114 156.504 7.67545 155.747C5.81976 154.99 4.26023 153.651 3.23142 151.933C1.10124 148.576 1.05027 144.18 4.24861 141.47C5.05501 140.775 5.99437 140.252 7.00956 139.931C8.02475 139.611 9.09455 139.5 10.1539 139.606C11.2133 139.711 12.2401 140.031 13.1719 140.546C14.1037 141.06 14.921 141.759 15.5742 142.599C16.8717 144.283 17.4525 146.41 17.1907 148.52C17.0331 149.586 18.6657 150.046 18.8247 148.97C19.2064 146.739 18.7831 144.446 17.6304 142.498C16.4777 140.55 14.6704 139.074 12.5304 138.334C10.3905 137.593 8.05692 137.636 5.94553 138.454C3.83414 139.272 2.08206 140.813 1.00143 142.802C-0.927348 146.426 0.113345 150.796 2.56174 153.894C3.82498 155.544 5.53716 156.795 7.49345 157.498C9.44975 158.201 11.5673 158.326 13.5927 157.858C18.0495 156.829 21.6954 153.29 23.4099 149.13C25.3187 144.5 24.4441 139.332 22.5834 134.839C20.5719 129.981 17.585 125.625 15.2228 120.944C13.084 116.715 11.7229 112.135 11.2045 107.424C10.167 97.9646 12.3156 88.4293 17.3104 80.3268C22.4014 72.35 30.1721 66.4487 39.2264 63.6829C48.1543 60.8825 58.001 60.9682 66.7425 64.41C75.3532 67.8001 83.6678 75.1884 83.568 85.1112C83.5254 89.3499 81.9507 93.6726 78.7015 96.4998C74.8186 99.8785 69.412 100.167 64.5308 99.64C59.6186 99.1094 54.8485 97.6759 49.9151 97.3102C45.6241 96.9921 40.9948 97.3228 37.1635 99.4531C35.3792 100.447 33.8602 101.855 32.7344 103.559C32.1292 104.469 33.5963 105.318 34.1976 104.413V104.413Z" fill="#2F2E41"/>
<path d="M39.008 178.35C39.0561 178.459 39.1104 178.566 39.1706 178.669C39.2312 178.777 39.2977 178.882 39.3696 178.983L52.5907 197.998L53.6162 199.475L64.4004 214.976L74.8048 229.941L79.0148 236.005C79.1281 236.17 79.2553 236.325 79.395 236.469C80.046 237.153 80.9215 237.581 81.8618 237.674H81.9701V211.812L80.7638 210.076L67.2353 190.621L52.7055 169.725C52.107 168.866 51.1919 168.278 50.1608 168.092C49.1297 167.906 48.0667 168.135 47.2047 168.731L42.7474 171.823L40.3527 173.486C39.5957 174.012 39.0467 174.787 38.8011 175.675C38.5555 176.564 38.6287 177.51 39.008 178.35Z" fill="#E95E51"/>
<path d="M36.9391 177.886L37.5361 179.085L37.5422 179.091L37.7051 179.41L47.3976 198.637C47.944 199.531 48.8225 200.172 49.841 200.421C50.8594 200.669 51.9349 200.504 52.8322 199.963L53.4595 199.571L53.6161 199.474L66.1136 191.639C66.5597 191.369 66.9478 191.014 67.2556 190.593C67.5635 190.173 67.7849 189.695 67.9071 189.189C68.0293 188.682 68.05 188.156 67.9678 187.642C67.8856 187.127 67.7022 186.634 67.4283 186.191L53.7007 167.591C52.3551 165.769 50.4225 164.465 48.2278 163.898C46.0332 163.332 43.7103 163.538 41.6497 164.481C41.1847 164.691 40.7369 164.937 40.3106 165.217C38.2929 166.549 36.8349 168.575 36.2134 170.91C35.5919 173.246 35.8501 175.728 36.9391 177.886Z" fill="#2F2E41"/>
<path d="M108.117 241.875V287.252C108.118 288.299 108.535 289.302 109.276 290.042C110.016 290.782 111.02 291.198 112.068 291.2H120.409C121.457 291.198 122.461 290.782 123.201 290.042C123.942 289.302 124.358 288.299 124.36 287.252V241.875H108.117Z" fill="#E95E51"/>
<path d="M59.4969 239.181V240.368C59.4978 240.995 59.7156 241.603 60.1135 242.089C60.5114 242.574 61.0649 242.907 61.6804 243.032C61.7646 243.044 61.8491 243.062 61.9336 243.068C62.0241 243.074 62.1145 243.08 62.2111 243.08H155.193C156.686 243.08 158.118 242.487 159.174 241.433C160.23 240.379 160.824 238.949 160.826 237.457V199.607C160.824 198.115 160.23 196.685 159.174 195.631C158.118 194.577 156.686 193.984 155.193 193.984H86.3913C84.8993 193.986 83.4689 194.578 82.4139 195.633C81.3589 196.687 80.7655 198.116 80.7639 199.607V236.468H62.2111C61.4912 236.468 60.8009 236.754 60.2919 237.263C59.7829 237.771 59.4969 238.461 59.4969 239.181Z" fill="white"/>
<path d="M59.4969 239.181V240.368C59.4978 240.995 59.7156 241.603 60.1135 242.089C60.5114 242.574 61.0649 242.907 61.6804 243.032C61.7646 243.044 61.8491 243.062 61.9336 243.068C62.0241 243.074 62.1145 243.08 62.2111 243.08H155.193C156.686 243.08 158.118 242.487 159.174 241.433C160.23 240.379 160.824 238.949 160.826 237.457V199.607C160.824 198.115 160.23 196.685 159.174 195.631C158.118 194.577 156.686 193.984 155.193 193.984H86.3913C84.8993 193.986 83.4689 194.578 82.4139 195.633C81.3589 196.687 80.7655 198.116 80.7639 199.607V236.468H62.2111C61.4912 236.468 60.8009 236.754 60.2919 237.263C59.7829 237.771 59.4969 238.461 59.4969 239.181ZM60.7032 240.368V239.181C60.7034 238.781 60.8623 238.398 61.145 238.115C61.4278 237.833 61.8112 237.674 62.2111 237.674H81.9702V199.607C81.9719 198.436 82.4383 197.313 83.267 196.485C84.0958 195.657 85.2193 195.191 86.3914 195.189H155.193C156.366 195.19 157.491 195.655 158.321 196.483C159.151 197.312 159.618 198.435 159.62 199.607V237.457C159.618 238.629 159.151 239.752 158.321 240.581C157.491 241.409 156.366 241.874 155.193 241.875H62.2111C61.8112 241.875 61.4278 241.716 61.145 241.433C60.8623 241.151 60.7034 240.767 60.7032 240.368V240.368Z" fill="#3F3D56"/>
<path d="M120.795 223.168C123.356 223.168 125.433 221.093 125.433 218.533C125.433 215.973 123.356 213.898 120.795 213.898C118.233 213.898 116.156 215.973 116.156 218.533C116.156 221.093 118.233 223.168 120.795 223.168Z" fill="#E95E51"/>
<path d="M81.9884 237.107H80.7821V242.532H81.9884V237.107Z" fill="#3F3D56"/>
</g>
<defs>
<clipPath id="clip0">
<rect width="308" height="312" fill="white"/>
</clipPath>
</defs>
</svg>
