<svg width="349" height="217" viewBox="0 0 349 217" fill="none" xmlns="http://www.w3.org/2000/svg">
<g clip-path="url(#clip0)">
<path d="M24.2196 201.017C25.8112 201.579 27.52 201.719 29.1814 201.425C30.8429 201.132 32.401 200.413 33.7056 199.339C37.0281 196.539 38.071 191.926 38.9173 187.654L41.4242 175.019L36.1757 178.648C32.4011 181.257 28.5418 183.951 25.9282 187.731C23.3145 191.511 22.1739 196.672 24.2736 200.762" fill="#E6E6E6"/>
<path d="M24.6682 216.314C24.137 212.428 23.5907 208.493 23.9633 204.566C24.2944 201.078 25.3537 197.672 27.5114 194.878C28.6566 193.398 30.0501 192.13 31.6292 191.131C32.0411 190.871 32.4197 191.526 32.01 191.785C29.2778 193.519 27.1645 196.08 25.9748 199.097C24.6609 202.453 24.45 206.111 24.6782 209.676C24.8152 211.832 25.1052 213.973 25.3978 216.112C25.4214 216.209 25.4072 216.311 25.3582 216.398C25.3092 216.485 25.229 216.549 25.1342 216.578C25.0377 216.605 24.9348 216.591 24.8479 216.542C24.761 216.492 24.697 216.41 24.67 216.314L24.6682 216.314Z" fill="#F2F2F2"/>
<path d="M129.927 132.598C129.541 132.782 129.121 132.882 128.695 132.89L89.0998 133.981C87.4518 134.017 85.8571 133.394 84.6665 132.249C83.4758 131.104 82.7868 129.532 82.751 127.877C82.7152 126.222 83.3355 124.621 84.4754 123.425C85.6154 122.23 87.1817 121.538 88.8296 121.502L128.424 120.411C129.226 120.394 130.002 120.698 130.582 121.255C131.161 121.812 131.497 122.577 131.515 123.382L131.654 129.786C131.666 130.372 131.509 130.949 131.203 131.448C130.897 131.947 130.454 132.346 129.927 132.598Z" fill="#E95E51"/>
<path d="M79.1221 216.395H72.7427C71.9405 216.394 71.1715 216.073 70.6043 215.504C70.0371 214.934 69.718 214.162 69.7171 213.357V159.967C69.718 159.161 70.0371 158.389 70.6043 157.82C71.1715 157.25 71.9405 156.93 72.7427 156.929H79.1221C79.9243 156.93 80.6933 157.25 81.2605 157.82C81.8277 158.389 82.1468 159.161 82.1477 159.967V213.357C82.1468 214.162 81.8277 214.934 81.2605 215.504C80.6933 216.073 79.9243 216.394 79.1221 216.395Z" fill="#E95E51"/>
<path d="M96.062 216.395H89.6825C88.8803 216.394 88.1113 216.073 87.5441 215.504C86.9768 214.934 86.6578 214.162 86.6569 213.357V159.967C86.6578 159.161 86.9768 158.389 87.5441 157.82C88.1113 157.25 88.8803 156.93 89.6825 156.929H96.062C96.8641 156.93 97.6332 157.25 98.2004 157.82C98.7676 158.389 99.0866 159.161 99.0875 159.967V213.357C99.0866 214.162 98.7676 214.934 98.2004 215.504C97.6332 216.073 96.8641 216.394 96.062 216.395Z" fill="#E95E51"/>
<path d="M85.0251 101.428C97.1994 101.428 107.069 91.5176 107.069 79.2929C107.069 67.0682 97.1994 57.1582 85.0251 57.1582C72.8509 57.1582 62.9818 67.0682 62.9818 79.2929C62.9818 91.5176 72.8509 101.428 85.0251 101.428Z" fill="#E95E51"/>
<path d="M92.5075 175.861H76.6495C73.3541 175.874 70.1138 175.012 67.2568 173.363C64.3997 171.714 62.0273 169.336 60.3796 166.47C58.7318 163.604 57.8673 160.352 57.8736 157.043C57.8798 153.734 58.7565 150.485 60.415 147.626L82.5921 109.055C82.8387 108.626 83.1933 108.27 83.6204 108.022C84.0475 107.775 84.532 107.645 85.0251 107.645C85.5183 107.645 86.0028 107.775 86.4299 108.022C86.8569 108.27 87.2116 108.626 87.4582 109.055L109.189 146.849C110.879 149.79 111.769 153.125 111.769 156.52C111.769 159.915 110.879 163.25 109.189 166.191C107.498 169.131 105.066 171.573 102.138 173.27C99.2102 174.968 95.8886 175.861 92.5075 175.861Z" fill="#2F2E41"/>
<path d="M90.228 88.5852C91.6569 88.5454 93.4353 88.4956 94.8053 87.4906C95.2132 87.1791 95.5484 86.7818 95.7873 86.3265C96.0263 85.8712 96.1632 85.369 96.1884 84.855C96.2132 84.4897 96.1535 84.1236 96.014 83.7853C95.8745 83.447 95.659 83.1457 95.3843 82.9049C94.6688 82.2977 93.6239 82.1553 92.4979 82.4876L93.6645 73.9264L92.8081 73.8086L91.4366 83.8733L92.1517 83.5438C92.9809 83.1619 94.1191 82.9676 94.8263 83.5678C95 83.7247 95.1353 83.9197 95.2217 84.1376C95.3081 84.3556 95.3433 84.5906 95.3246 84.8244C95.3036 85.207 95.2008 85.5805 95.0232 85.9196C94.8456 86.2587 94.5974 86.5555 94.2953 86.7896C93.2292 87.5716 91.8117 87.6725 90.204 87.7176L90.228 88.5852Z" fill="#2F2E41"/>
<path d="M102.556 74.6641H97.9V75.5321H102.556V74.6641Z" fill="#2F2E41"/>
<path d="M87.8601 74.6641H83.2044V75.5321H87.8601V74.6641Z" fill="#2F2E41"/>
<path d="M79.8403 170.911C79.6571 170.524 79.5583 170.102 79.5504 169.673L78.4637 129.915C78.4278 128.26 79.0481 126.659 80.1881 125.463C81.3281 124.267 82.8943 123.576 84.5423 123.54C86.1903 123.504 87.785 124.126 88.9756 125.271C90.1663 126.416 90.8553 127.989 90.8911 129.643L91.9777 169.402C91.9943 170.207 91.692 170.986 91.1373 171.568C90.5826 172.15 89.8207 172.487 89.0188 172.506L82.641 172.645C82.0575 172.657 81.4828 172.5 80.9861 172.192C80.4893 171.885 80.0914 171.44 79.8403 170.911Z" fill="#E95E51"/>
<path d="M82.9799 62.931C85.6581 66.448 89.9098 68.8072 94.4033 68.2486C98.6825 67.7167 102.213 64.7218 103.098 60.434C103.485 58.4068 103.381 56.316 102.794 54.3377C102.208 52.3595 101.156 50.5518 99.7285 49.067C96.6997 45.8681 92.3649 44.1474 88.0744 43.5573C79.9466 42.4396 71.5992 45.3145 65.4539 50.6762C62.3677 53.3418 59.9044 56.6574 58.239 60.3873C56.6347 64.0896 55.8707 68.1039 56.0022 72.1394C56.2384 80.1144 59.7172 88.0741 65.7198 93.363C66.4653 94.0177 67.2456 94.6314 68.0573 95.2014C68.7419 95.6836 69.3905 94.5553 68.7117 94.0771C62.5646 89.7469 58.6437 82.7012 57.5675 75.298C57.0039 71.5679 57.2552 67.7593 58.3041 64.1364C59.3529 60.5136 61.1742 57.1633 63.6415 54.3179C68.6052 48.6506 75.8832 44.967 83.4212 44.6369C91.0063 44.3048 100.485 47.7051 101.904 56.1836C102.541 59.9837 101.126 63.9781 97.6581 65.8806C93.945 67.9176 89.3921 67.0793 86.2013 64.4486C85.42 63.807 84.7148 63.0773 84.0996 62.2738C83.5995 61.6171 82.4727 62.265 82.9799 62.931H82.9799Z" fill="#2F2E41"/>
<path d="M306.038 5.13758L119.013 32.2666L131.833 121.381L318.858 94.2515L306.038 5.13758Z" fill="#F1F1F1"/>
<path d="M301.789 13.5543L125.461 39.1318L136.157 113.482L312.485 87.9049L301.789 13.5543Z" fill="white"/>
<path d="M305.217 -0.000112763L118.193 27.1289L119.34 35.1072L306.365 7.97816L305.217 -0.000112763Z" fill="#E5E5E5"/>
<path d="M124.772 32.4579C125.594 32.4579 126.26 31.789 126.26 30.9638C126.26 30.1387 125.594 29.4697 124.772 29.4697C123.95 29.4697 123.284 30.1387 123.284 30.9638C123.284 31.789 123.95 32.4579 124.772 32.4579Z" fill="white"/>
<path d="M130.362 31.6474C131.183 31.6474 131.85 30.9784 131.85 30.1533C131.85 29.3281 131.183 28.6592 130.362 28.6592C129.54 28.6592 128.874 29.3281 128.874 30.1533C128.874 30.9784 129.54 31.6474 130.362 31.6474Z" fill="white"/>
<path d="M135.952 30.8368C136.773 30.8368 137.439 30.1679 137.439 29.3427C137.439 28.5176 136.773 27.8486 135.952 27.8486C135.13 27.8486 134.464 28.5176 134.464 29.3427C134.464 30.1679 135.13 30.8368 135.952 30.8368Z" fill="white"/>
<path d="M349 43.4805H160.034V133.519H349V43.4805Z" fill="#E6E6E6"/>
<path d="M343.597 51.2021H165.438V126.324H343.597V51.2021Z" fill="white"/>
<path d="M348.919 38.2783H159.954V46.3394H348.919V38.2783Z" fill="#CBCBCB"/>
<path d="M165.919 44.5126C166.741 44.5126 167.407 43.8437 167.407 43.0185C167.407 42.1933 166.741 41.5244 165.919 41.5244C165.098 41.5244 164.431 42.1933 164.431 43.0185C164.431 43.8437 165.098 44.5126 165.919 44.5126Z" fill="white"/>
<path d="M171.567 44.5126C172.389 44.5126 173.055 43.8437 173.055 43.0185C173.055 42.1933 172.389 41.5244 171.567 41.5244C170.745 41.5244 170.079 42.1933 170.079 43.0185C170.079 43.8437 170.745 44.5126 171.567 44.5126Z" fill="white"/>
<path d="M177.215 44.5126C178.037 44.5126 178.703 43.8437 178.703 43.0185C178.703 42.1933 178.037 41.5244 177.215 41.5244C176.393 41.5244 175.727 42.1933 175.727 43.0185C175.727 43.8437 176.393 44.5126 177.215 44.5126Z" fill="white"/>
<path d="M293.19 62.623H268.098V64.5168H293.19V62.623Z" fill="#E6E6E6"/>
<path d="M306.845 68.1826H268.098V70.0764H306.845V68.1826Z" fill="#E6E6E6"/>
<path d="M300.079 73.4775H268.501V75.3713H300.079V73.4775Z" fill="#E6E6E6"/>
<path d="M286.533 79.2861H268.098V81.1799H286.533V79.2861Z" fill="#E6E6E6"/>
<path d="M295.921 84.9609H268.098V86.8547H295.921V84.9609Z" fill="#E6E6E6"/>
<path d="M259.734 62.0273H256.662V65.1125H259.734V62.0273Z" fill="#E6E6E6"/>
<path d="M259.734 67.5869H256.662V70.6721H259.734V67.5869Z" fill="#E6E6E6"/>
<path d="M259.734 72.8818H256.662V75.967H259.734V72.8818Z" fill="#E6E6E6"/>
<path d="M259.734 78.6904H256.662V81.7756H259.734V78.6904Z" fill="#E6E6E6"/>
<path d="M259.734 84.3652H256.662V87.4504H259.734V84.3652Z" fill="#E6E6E6"/>
<path d="M293.19 90.6709H268.098V92.5647H293.19V90.6709Z" fill="#E6E6E6"/>
<path d="M306.845 96.2305H268.098V98.1242H306.845V96.2305Z" fill="#E6E6E6"/>
<path d="M300.079 101.525H268.501V103.419H300.079V101.525Z" fill="#E6E6E6"/>
<path d="M286.533 107.335H268.098V109.229H286.533V107.335Z" fill="#E6E6E6"/>
<path d="M295.921 113.009H268.098V114.903H295.921V113.009Z" fill="#E6E6E6"/>
<path d="M259.734 90.0752H256.662V93.1604H259.734V90.0752Z" fill="#E6E6E6"/>
<path d="M259.734 95.6348H256.662V98.7199H259.734V95.6348Z" fill="#E6E6E6"/>
<path d="M259.734 100.93H256.662V104.015H259.734V100.93Z" fill="#E6E6E6"/>
<path d="M259.734 106.739H256.662V109.824H259.734V106.739Z" fill="#E6E6E6"/>
<path d="M259.734 112.413H256.662V115.498H259.734V112.413Z" fill="#E6E6E6"/>
<path d="M213.813 105.525H188.722V107.419H213.813V105.525Z" fill="#E6E6E6"/>
<path d="M216.942 110.446H185.365V112.34H216.942V110.446Z" fill="#E6E6E6"/>
<path d="M217.576 81.6367C217.575 84.4829 216.839 87.2802 215.439 89.7554C214.04 92.2306 212.025 94.2991 209.592 95.7588C207.158 97.2185 204.39 98.0195 201.556 98.0837C198.722 98.1479 195.92 97.473 193.424 96.125L193.421 96.1218C190.871 94.7423 188.73 92.7088 187.218 90.2283C185.706 87.7478 184.875 84.9091 184.811 82.0013C184.747 79.0936 185.452 76.2208 186.854 73.6756C188.255 71.1304 190.304 69.0039 192.791 67.5127C195.278 66.0214 198.114 65.2188 201.01 65.1866C203.906 65.1543 206.759 65.8936 209.278 67.3292C211.797 68.7647 213.892 70.8451 215.35 73.3585C216.808 75.8718 217.576 78.7283 217.576 81.6367V81.6367Z" fill="#E6E6E6"/>
<path d="M201.276 80.8379C203.736 80.8379 205.73 78.8356 205.73 76.3657C205.73 73.8958 203.736 71.8936 201.276 71.8936C198.816 71.8936 196.822 73.8958 196.822 76.3657C196.822 78.8356 198.816 80.8379 201.276 80.8379Z" fill="white"/>
<path d="M208.881 90.0792C203.902 91.8341 198.473 91.8129 193.507 90.0194L193.504 90.0172L196.822 83.4404H205.73L208.881 90.0792Z" fill="white"/>
<path d="M151.965 122.473C144.203 122.473 137.887 115.736 137.887 107.455C137.887 99.175 144.203 92.4385 151.965 92.4385C159.728 92.4385 166.044 99.175 166.044 107.455C166.044 115.736 159.728 122.473 151.965 122.473ZM151.965 96.2329C146.286 96.2329 141.666 101.267 141.666 107.455C141.666 113.644 146.286 118.678 151.965 118.678C157.645 118.678 162.265 113.644 162.265 107.455C162.265 101.267 157.645 96.2329 151.965 96.2329Z" fill="#E95E51"/>
<path d="M165.297 148.643H138.634C136.282 148.641 134.028 147.701 132.366 146.032C130.703 144.362 129.768 142.099 129.765 139.738V113.476C129.767 111.859 130.407 110.31 131.546 109.167C132.684 108.024 134.227 107.381 135.837 107.379H168.094C169.704 107.381 171.247 108.024 172.385 109.167C173.524 110.31 174.164 111.859 174.166 113.476V139.738C174.163 142.099 173.228 144.362 171.565 146.032C169.903 147.701 167.648 148.641 165.297 148.643Z" fill="#3F3D56"/>
<path d="M157.161 122.319C157.162 121.392 156.916 120.481 156.45 119.68C155.984 118.88 155.313 118.218 154.507 117.765C153.702 117.311 152.791 117.081 151.867 117.099C150.944 117.116 150.042 117.381 149.254 117.865C148.466 118.349 147.821 119.035 147.385 119.852C146.949 120.67 146.738 121.59 146.773 122.516C146.809 123.443 147.09 124.344 147.588 125.125C148.085 125.906 148.781 126.541 149.604 126.962V135.125H154.327V126.962C155.18 126.526 155.896 125.861 156.396 125.042C156.896 124.222 157.161 123.28 157.161 122.319Z" fill="white"/>
<path d="M165.109 217H0.432223C0.317591 217 0.207653 216.954 0.126595 216.873C0.0455374 216.791 0 216.681 0 216.566C0 216.451 0.0455374 216.34 0.126595 216.259C0.207653 216.178 0.317591 216.132 0.432223 216.132H165.109C165.224 216.132 165.334 216.178 165.415 216.259C165.496 216.34 165.542 216.451 165.542 216.566C165.542 216.681 165.496 216.791 165.415 216.873C165.334 216.954 165.224 217 165.109 217Z" fill="#3F3D56"/>
</g>
<defs>
<clipPath id="clip0">
<rect width="349" height="217" fill="white"/>
</clipPath>
</defs>
</svg>
