<svg width="150" height="150" viewBox="0 0 150 150" fill="none" xmlns="http://www.w3.org/2000/svg">
<g clip-path="url(#clip0)">
<path d="M150 75C150.011 84.6347 148.162 94.1809 144.552 103.114C144.543 103.134 144.537 103.152 144.528 103.172V103.174C142.102 109.155 138.91 114.797 135.033 119.958C134.285 120.956 133.514 121.934 132.719 122.891C132.428 123.242 132.133 123.59 131.838 123.934C130.318 125.698 128.719 127.388 127.04 129.004C126.65 129.382 126.255 129.754 125.855 130.123C125.762 130.209 125.669 130.294 125.576 130.38C123.621 132.166 121.573 133.848 119.44 135.417C118.009 136.476 116.54 137.481 115.034 138.433C114.703 138.643 114.37 138.851 114.035 139.054C113.454 139.409 112.867 139.756 112.275 140.095C111.503 140.538 110.721 140.968 109.93 141.384C109.611 141.555 109.289 141.719 108.967 141.883C108.497 142.125 108.024 142.358 107.547 142.587C107.465 142.626 107.383 142.666 107.301 142.704C106.99 142.855 106.675 143.001 106.36 143.148C102.256 145.041 97.9885 146.555 93.6098 147.672C93.5854 147.679 93.5632 147.683 93.5388 147.69C93.2526 147.763 92.9641 147.834 92.6756 147.903C92.4604 147.956 92.2429 148.007 92.0255 148.056C91.9987 148.065 91.9712 148.072 91.9434 148.076C91.4974 148.18 91.0514 148.28 90.6009 148.371C90.348 148.425 90.095 148.478 89.8421 148.529C89.689 148.562 89.5336 148.591 89.3805 148.62C89.1875 148.658 88.9967 148.693 88.8036 148.731C88.6971 148.753 88.5906 148.771 88.4819 148.788C88.2378 148.833 87.9937 148.877 87.7518 148.919C87.3391 148.99 86.9219 149.059 86.507 149.121C86.2052 149.168 85.9057 149.212 85.6039 149.254C85.2489 149.305 84.8938 149.352 84.5366 149.396C84.4389 149.412 84.3413 149.423 84.2437 149.434C84.1172 149.45 83.9907 149.465 83.8643 149.481C83.6091 149.512 83.3539 149.541 83.0965 149.567C82.9634 149.583 82.8325 149.596 82.6993 149.609C82.4464 149.636 82.1934 149.661 81.9404 149.683C81.6143 149.714 81.2881 149.74 80.9597 149.767C80.5603 149.798 80.1631 149.827 79.7614 149.851C79.5041 149.867 79.2466 149.882 78.987 149.896C78.3258 149.931 77.6646 149.956 76.9989 149.973C76.6683 149.982 76.3354 149.989 76.0026 149.993H75.9959C75.6653 149.998 75.3325 150 74.9996 150C71.6266 150.001 68.2573 149.776 64.9145 149.325C62.4626 148.997 60.0499 148.552 57.6764 147.99C57.581 147.967 57.4856 147.945 57.3924 147.921C57.1527 147.865 56.9153 147.805 56.6779 147.746C56.4671 147.692 56.2585 147.637 56.0477 147.581C50.6149 146.168 45.3596 144.144 40.382 141.548C40.3576 141.535 40.331 141.521 40.3066 141.508C40.1623 141.433 40.0203 141.359 39.8783 141.282C39.5654 141.118 39.254 140.95 38.9441 140.78C37.1801 139.811 35.4611 138.774 33.7873 137.669C33.3569 137.388 32.9308 137.101 32.5092 136.811C32.3739 136.717 32.2407 136.624 32.1076 136.531C31.9678 136.433 31.828 136.336 31.6904 136.238C31.3243 135.979 30.9604 135.716 30.5987 135.45C29.1009 134.35 27.6475 133.195 26.2385 131.987C21.2443 127.709 16.8311 122.797 13.1113 117.375C11.8132 115.484 10.6017 113.533 9.47668 111.521C3.24215 100.36 -0.0211293 87.7845 -0.000390042 75C-0.000390042 33.5791 33.5788 0 74.9996 0C116.42 0 150 33.5791 150 75Z" fill="#EA5367"/>
<path opacity="0.2" d="M87.0598 147.921C87.2995 147.865 87.5369 147.805 87.7743 147.746C87.9851 147.692 88.1937 147.637 88.4045 147.581C88.4156 147.14 88.4311 146.654 88.4466 146.128C88.5776 142.01 88.886 135.379 89.6138 127.391C89.6538 126.963 89.6937 126.532 89.7336 126.098C89.9933 123.391 90.2972 120.544 90.6612 117.592C90.6722 117.495 90.6856 117.399 90.6967 117.302C90.9918 114.91 91.3268 112.453 91.7041 109.95C91.9681 108.2 92.2536 106.43 92.5606 104.641C92.5828 104.516 92.6049 104.39 92.6271 104.266C92.7159 103.749 92.8069 103.234 92.9001 102.714C93.1597 101.27 93.437 99.8165 93.7277 98.3631C94.7507 93.2507 95.9688 88.1072 97.4222 83.1035C98.8986 77.9143 100.717 72.8284 102.865 67.8794C104.532 64.0348 106.516 60.3363 108.799 56.8225C108.832 56.7714 108.865 56.7226 108.899 56.6716C111.816 52.2759 115.152 48.5458 118.959 45.7566L118.169 44.6782C114.521 47.352 111.175 50.9097 108.131 55.3513C108.115 55.3735 108.102 55.3935 108.086 55.4156C105.797 58.8105 103.799 62.3928 102.113 66.1242C99.8557 71.1155 97.9517 76.259 96.4149 81.517C94.9592 86.4031 93.6538 91.6967 92.4984 97.3979C92.0924 99.406 91.7048 101.464 91.3357 103.571C91.2736 103.93 91.2115 104.29 91.1493 104.652C91.1493 104.656 91.1471 104.663 91.1471 104.667C91.0517 105.222 90.9607 105.777 90.8675 106.338C90.6367 107.751 90.4193 109.154 90.2151 110.545C89.9001 112.689 89.6153 114.795 89.3608 116.865C89.2765 117.548 89.1952 118.226 89.1168 118.899C89.0058 119.849 88.9008 120.786 88.8017 121.711C88.6619 122.998 88.5339 124.257 88.4178 125.49L88.3845 125.829C88.3668 126.024 88.349 126.22 88.3313 126.413C87.4304 136.129 87.1486 143.978 87.0598 147.921Z" fill="black"/>
<path opacity="0.2" d="M104.07 141.548C104.095 141.535 104.121 141.521 104.146 141.508C104.603 141.271 105.056 141.029 105.508 140.78C105.657 139.01 105.857 137.064 106.118 135.018C106.174 134.596 106.229 134.168 106.291 133.737C106.323 133.507 106.356 133.274 106.389 133.038C106.651 131.237 106.962 129.377 107.334 127.509C108.85 119.885 111.366 112.092 115.544 107.281C115.769 107.021 115.997 106.773 116.235 106.531C116.823 105.92 117.462 105.359 118.145 104.856L117.355 103.78C116.402 104.485 115.524 105.287 114.737 106.174C114.459 106.482 114.189 106.803 113.925 107.137C110.079 111.976 107.678 119.141 106.183 126.235C105.792 128.086 105.464 129.934 105.184 131.734C105.113 132.204 105.045 132.67 104.98 133.132C104.547 136.18 104.261 139.061 104.07 141.548Z" fill="black"/>
<path opacity="0.2" d="M126.421 45.7257C130.109 45.7257 133.098 42.7366 133.098 39.0493C133.098 35.362 130.109 32.3728 126.421 32.3728C122.734 32.3728 119.745 35.362 119.745 39.0493C119.745 42.7366 122.734 45.7257 126.421 45.7257Z" fill="black"/>
<path opacity="0.2" d="M124.271 103.198C127.958 103.198 130.948 100.209 130.948 96.5217C130.948 92.8344 127.958 89.8452 124.271 89.8452C120.584 89.8452 117.595 92.8344 117.595 96.5217C117.595 100.209 120.584 103.198 124.271 103.198Z" fill="black"/>
<path opacity="0.2" d="M99.9155 50.2635C101.331 58.2511 98.2059 65.4837 98.2059 65.4837C98.2059 65.4837 92.785 59.7659 91.3693 51.7783C89.9535 43.7907 93.0789 36.5581 93.0789 36.5581C93.0789 36.5581 98.4997 42.2759 99.9155 50.2635Z" fill="black"/>
<path opacity="0.2" d="M122.104 69.2244C114.485 72.0103 106.83 70.2225 106.83 70.2225C106.83 70.2225 111.526 63.9179 119.145 61.132C126.764 58.3461 134.419 60.1339 134.419 60.1339C134.419 60.1339 129.723 66.4385 122.104 69.2244Z" fill="black"/>
<path opacity="0.2" d="M123.396 120.118C118.056 122.071 112.682 120.797 112.682 120.797C112.682 120.797 115.967 116.357 121.307 114.405C126.647 112.452 132.021 113.726 132.021 113.726C132.021 113.726 128.736 118.166 123.396 120.118Z" fill="black"/>
<path d="M97.6243 118.995L97.895 119.135C97.8684 119.423 97.804 119.601 97.6243 118.995Z" fill="#2F2E41"/>
<path d="M97.9816 119.088C97.9838 119.119 97.9882 119.152 97.9904 119.183L97.895 119.135C97.8972 119.106 97.8995 119.075 97.9039 119.044C97.9261 118.655 97.8995 118.196 97.9816 119.088Z" fill="#2F2E41"/>
<path d="M69.1603 108.473C89.2839 108.473 105.597 92.1593 105.597 72.0358C105.597 51.9122 89.2839 35.5989 69.1603 35.5989C49.0367 35.5989 32.7234 51.9122 32.7234 72.0358C32.7234 92.1593 49.0367 108.473 69.1603 108.473Z" fill="#2F2E41"/>
<path d="M72.1598 106.987C84.3466 106.987 94.2259 97.108 94.2259 84.9213C94.2259 72.7345 84.3466 62.8552 72.1598 62.8552C59.9731 62.8552 50.0938 72.7345 50.0938 84.9213C50.0938 97.108 59.9731 106.987 72.1598 106.987Z" fill="#D0CDE1"/>
<path d="M122.545 127.214L122.518 127.22L117.386 128.452L106.7 131.017L105.242 131.368L88.9904 135.266L87.6102 135.599L48.182 145.061C45.5166 144.041 42.9124 142.868 40.3824 141.548C40.358 141.535 40.3314 141.522 40.307 141.508C40.1627 141.433 40.0207 141.36 39.8787 141.282C39.5658 141.118 39.2544 140.951 38.9445 140.78C37.1805 139.811 35.4615 138.774 33.7877 137.669C33.3573 137.388 32.9312 137.101 32.5096 136.811C32.3743 136.718 32.2411 136.624 32.108 136.531C31.9682 136.434 31.8284 136.336 31.6908 136.238C31.3247 135.979 30.9608 135.716 30.5991 135.451C34.429 128.49 43.5488 123.863 52.6686 121.331C59.5518 119.419 61.0651 113.132 60.9342 107.539C60.9009 106.263 60.7927 104.99 60.6102 103.726C60.3322 101.716 59.8899 99.7313 59.2877 97.793L81.355 98.5297L83.6317 103.775C83.5694 104.351 83.5493 104.931 83.5717 105.51C83.7448 109.813 86.4009 112.595 89.6783 114.391C90.1043 114.624 90.5414 114.841 90.9852 115.043C96.3595 117.486 102.686 117.652 102.686 117.652C104.612 117.439 106.558 117.476 108.475 117.761C108.941 117.832 109.393 117.917 109.833 118.016C112.398 118.59 114.821 119.674 116.958 121.205C117.774 121.785 118.546 122.426 119.268 123.12C120.551 124.321 121.654 125.699 122.545 127.214Z" fill="#D0CDE1"/>
<path d="M125.856 130.123C125.762 130.209 125.669 130.294 125.576 130.38C123.621 132.166 121.573 133.848 119.441 135.417C118.009 136.476 116.541 137.481 115.034 138.433C114.703 138.644 114.37 138.851 114.035 139.054C113.454 139.409 112.867 139.756 112.276 140.095C111.504 140.539 110.722 140.968 109.93 141.384C109.611 141.555 109.289 141.719 108.967 141.883C108.497 142.125 108.024 142.358 107.547 142.587C107.465 142.627 107.383 142.666 107.301 142.704L106.362 141.925L117.386 128.452L119.603 125.743C119.603 125.743 120.488 125.743 122.518 127.22C123.641 128.056 124.701 128.971 125.691 129.959C125.745 130.014 125.8 130.067 125.856 130.123Z" fill="#D0CDE1"/>
<path d="M125.7 129.972C125.671 130.111 125.629 130.248 125.576 130.38C123.621 132.166 121.573 133.848 119.441 135.417C117.59 136.084 115.671 136.54 113.718 136.777C113.718 136.777 113.885 137.612 114.035 139.054C113.454 139.409 112.868 139.756 112.276 140.095C111.504 140.538 110.722 140.968 109.93 141.384C109.611 141.555 109.289 141.719 108.967 141.883C108.497 142.125 108.024 142.358 107.547 142.587C107.465 142.626 107.383 142.666 107.301 142.704C106.99 142.855 106.675 143.001 106.36 143.148C102.257 145.041 97.9889 146.555 93.6101 147.672C93.5857 147.679 93.5636 147.683 93.5391 147.69C93.2529 147.763 92.9644 147.834 92.676 147.903C92.4607 147.956 92.2433 148.007 92.0258 148.056C91.999 148.065 91.9716 148.072 91.9437 148.076C91.4977 148.18 91.0517 148.28 90.6013 148.371C90.3483 148.425 90.0954 148.478 89.8424 148.529C89.6893 148.562 89.534 148.591 89.3809 148.62C89.1878 148.658 88.997 148.693 88.8039 148.731C88.6974 148.753 88.5909 148.771 88.4822 148.788C88.2381 148.833 87.994 148.877 87.7522 148.919C87.3394 148.99 86.9223 149.059 86.5073 149.121C86.2056 149.168 85.906 149.212 85.6042 149.254C85.2492 149.305 84.8942 149.352 84.5369 149.396C84.4393 149.412 84.3417 149.423 84.244 149.434C84.1176 149.45 83.9911 149.465 83.8646 149.481C83.6094 149.512 83.3542 149.541 83.0968 149.567C82.9637 149.583 82.8328 149.596 82.6997 149.609C82.4467 149.636 82.1937 149.66 81.9408 149.683C81.6146 149.714 81.2884 149.74 80.96 149.767C80.5606 149.798 80.1634 149.827 79.7618 149.851C79.5044 149.867 79.247 149.882 78.9874 149.896C78.3261 149.931 77.6649 149.956 76.9992 149.973C76.6686 149.982 76.3358 149.989 76.0029 149.993H75.9963C75.6656 149.998 75.3328 150 75 150C71.6269 150.001 68.2577 149.776 64.9149 149.325C62.463 148.997 60.0503 148.552 57.6767 147.99C57.5813 147.967 57.4859 147.945 57.3927 147.921C57.1531 147.865 56.9156 147.805 56.6782 147.746C56.4674 147.692 56.2588 147.637 56.048 147.581C50.6153 146.168 45.36 144.144 40.3824 141.548C40.3579 141.535 40.3313 141.521 40.3069 141.508C40.1627 141.433 40.0207 141.359 39.8787 141.282C52.0584 138.444 71.3054 133.968 88.0073 130.134C88.4755 130.027 88.9408 129.921 89.403 129.814C95.5717 128.399 101.35 127.081 106.238 125.978C106.744 125.865 107.24 125.754 107.725 125.645C112.977 124.464 117.055 123.568 119.268 123.12C119.864 122.984 120.467 122.878 121.074 122.802L125.692 129.959L125.7 129.972Z" fill="#2F2E41"/>
<path d="M35.8245 56.5306C41.8187 56.5306 46.678 51.6713 46.678 45.677C46.678 39.6828 41.8187 34.8235 35.8245 34.8235C29.8302 34.8235 24.9709 39.6828 24.9709 45.677C24.9709 51.6713 29.8302 56.5306 35.8245 56.5306Z" fill="#2F2E41"/>
<path d="M102.496 53.4295C108.491 53.4295 113.35 48.5702 113.35 42.576C113.35 36.5817 108.491 31.7224 102.496 31.7224C96.5021 31.7224 91.6428 36.5817 91.6428 42.576C91.6428 48.5702 96.5021 53.4295 102.496 53.4295Z" fill="#2F2E41"/>
<path d="M90.8675 37.9246C90.8679 35.2477 91.8576 32.6653 93.6463 30.6738C95.4351 28.6822 97.8967 27.422 100.558 27.1352C99.0425 26.9697 97.5089 27.1253 96.0574 27.592C94.6058 28.0588 93.2689 28.8261 92.1337 29.844C90.9985 30.862 90.0906 32.1077 89.469 33.5C88.8474 34.8922 88.5261 36.3999 88.5261 37.9246C88.5261 39.4493 88.8474 40.957 89.469 42.3493C90.0906 43.7415 90.9985 44.9872 92.1337 46.0052C93.2689 47.0231 94.6058 47.7904 96.0574 48.2572C97.5089 48.7239 99.0425 48.8796 100.558 48.714C97.8967 48.4272 95.4351 47.167 93.6463 45.1754C91.8576 43.1839 90.8679 40.6015 90.8675 37.9246Z" fill="#2F2E41"/>
<path d="M23.6973 54.4563C21.8241 52.544 20.7237 50.0068 20.6076 47.3324C20.4914 44.658 21.3677 42.035 23.0681 39.9675C21.8696 40.9101 20.8831 42.0945 20.173 43.4438C19.4628 44.793 19.0449 46.2768 18.9465 47.7984C18.848 49.3199 19.0713 50.8451 19.6017 52.2746C20.1321 53.7041 20.9578 55.0058 22.0249 56.0949C23.092 57.184 24.3766 58.0361 25.795 58.5955C27.2134 59.155 28.7337 59.4093 30.257 59.3419C31.7802 59.2746 33.2722 58.887 34.6356 58.2045C35.9991 57.522 37.2034 56.5599 38.1702 55.3808C36.0685 57.0387 33.4282 57.8613 30.7567 57.6907C28.0852 57.52 25.571 56.3681 23.6973 54.4563Z" fill="#2F2E41"/>
<path d="M69.1604 54.9802C56.3156 54.9802 45.9028 61.0544 45.9028 68.5472C45.9028 71.8998 47.9959 74.9638 51.4508 77.331L55.9282 74.0868L54.7106 79.1692C55.2158 79.4033 55.7317 79.6299 56.2697 79.8393L62.9584 72.0358V81.6224C65.0094 81.951 67.0833 82.1155 69.1604 82.1141C82.0052 82.1141 92.418 76.04 92.418 68.5472C92.418 61.0544 82.0052 54.9802 69.1604 54.9802Z" fill="#2F2E41"/>
<path d="M91.6428 42.5762C91.6428 42.5762 89.9571 50.3287 100.491 53.4297L91.6428 42.5762Z" fill="#2F2E41"/>
<path d="M45.9027 43.9871C45.9027 43.9871 49.779 52.6543 38.1501 56.5306L45.9027 43.9871Z" fill="#2F2E41"/>
<path d="M51.6512 93.5845C52.6292 93.3107 52.8893 91.1861 52.2322 88.839C51.5752 86.4918 50.2497 84.8111 49.2717 85.0848C48.2938 85.3586 48.0336 87.4833 48.6907 89.8304C49.3478 92.1775 50.6732 93.8583 51.6512 93.5845Z" fill="#D0CDE1"/>
<path d="M96.4291 85.7699C96.5789 83.3372 95.8786 81.3144 94.865 81.252C93.8514 81.1896 92.9082 83.1111 92.7583 85.5439C92.6085 87.9766 93.3088 89.9993 94.3224 90.0618C95.3361 90.1242 96.2793 88.2027 96.4291 85.7699Z" fill="#D0CDE1"/>
</g>
<defs>
<clipPath id="clip0">
<rect width="150" height="150" fill="white"/>
</clipPath>
</defs>
</svg>
