<svg width="150" height="150" viewBox="0 0 150 150" fill="none" xmlns="http://www.w3.org/2000/svg">
<g clip-path="url(#clip0)">
<path d="M150 74.9999C150.013 85.1526 147.958 95.2016 143.96 104.534L143.712 105.106C136.948 120.492 125.221 133.166 110.405 141.101C95.5896 149.035 78.541 151.773 61.9859 148.875C61.5355 148.795 61.0858 148.712 60.6368 148.626C55.9978 147.727 51.455 146.387 47.0703 144.626C46.358 144.339 45.6509 144.043 44.949 143.736C44.4697 143.527 43.9904 143.312 43.5155 143.09C30.5257 137.07 19.5278 127.461 11.8179 115.397C4.10802 103.334 0.00762572 89.317 0 74.9999C0 33.5791 33.5791 0 75 0C116.421 0 150 33.5791 150 74.9999Z" fill="#BB5A30"/>
<path opacity="0.2" d="M61.986 148.875C61.5356 148.795 61.0859 148.712 60.6369 148.626C60.344 140.126 59.3389 122.678 55.9106 104.405C54.0356 94.4045 51.4328 84.153 47.8226 74.9888C46.5857 71.8179 45.173 68.7184 43.5911 65.7048C39.9431 58.815 35.5186 53.0147 30.1532 49.085L30.9431 48.0066C35.4054 51.2773 39.4158 55.869 42.9742 61.7817C44.0415 63.5524 45.0667 65.4415 46.0497 67.4489C47.1037 69.5968 48.1088 71.8771 49.0652 74.2899C49.6754 75.8254 50.2649 77.4141 50.8337 79.0561C53.31 86.1856 55.415 94.3202 57.1488 103.46C57.5327 105.479 57.898 107.548 58.2449 109.666C60.932 126.08 61.7419 141.255 61.986 148.875Z" fill="black"/>
<path opacity="0.2" d="M44.9489 143.736C44.4696 143.527 43.9903 143.312 43.5155 143.09C43.0517 138.053 42.1996 131.805 40.6419 125.874C39.9597 123.21 39.0839 120.599 38.0214 118.063C36.244 113.903 33.943 110.366 30.9674 108.184L31.7573 107.108C34.8727 109.389 37.2758 112.995 39.1331 117.213C41.2255 121.966 42.6212 127.498 43.551 132.783C44.241 136.709 44.676 140.501 44.9489 143.736Z" fill="black"/>
<path opacity="0.2" d="M22.6911 49.0541C26.3784 49.0541 29.3676 46.0649 29.3676 42.3776C29.3676 38.6903 26.3784 35.7012 22.6911 35.7012C19.0038 35.7012 16.0146 38.6903 16.0146 42.3776C16.0146 46.0649 19.0038 49.0541 22.6911 49.0541Z" fill="black"/>
<path opacity="0.2" d="M24.8414 106.526C28.5287 106.526 31.5178 103.537 31.5178 99.85C31.5178 96.1627 28.5287 93.1736 24.8414 93.1736C21.1541 93.1736 18.1649 96.1627 18.1649 99.85C18.1649 103.537 21.1541 106.526 24.8414 106.526Z" fill="black"/>
<path opacity="0.2" d="M49.1968 53.5919C47.781 61.5794 50.9064 68.812 50.9064 68.812C50.9064 68.812 56.3272 63.0942 57.743 55.1067C59.1588 47.1191 56.0334 39.8865 56.0334 39.8865C56.0334 39.8865 50.6126 45.6043 49.1968 53.5919Z" fill="black"/>
<path opacity="0.2" d="M27.0086 72.5528C34.6273 75.3386 42.283 73.5508 42.283 73.5508C42.283 73.5508 37.5864 67.2462 29.9677 64.4603C22.349 61.6745 14.6932 63.4623 14.6932 63.4623C14.6932 63.4623 19.3899 69.7669 27.0086 72.5528Z" fill="black"/>
<path opacity="0.2" d="M25.7164 123.446C31.0565 125.399 36.4301 124.125 36.4301 124.125C36.4301 124.125 33.1457 119.686 27.8056 117.733C22.4655 115.78 17.0919 117.054 17.0919 117.054C17.0919 117.054 20.3763 121.494 25.7164 123.446Z" fill="black"/>
<path d="M74.8462 91.6087C90.9944 91.6087 104.085 78.518 104.085 62.3698C104.085 46.2216 90.9944 33.1309 74.8462 33.1309C58.698 33.1309 45.6073 46.2216 45.6073 62.3698C45.6073 78.518 58.698 91.6087 74.8462 91.6087Z" fill="#D0CDE1"/>
<path d="M63.4243 84.7558C63.4243 84.7558 67.0792 102.116 67.0792 103.944C67.0792 105.771 84.4398 113.995 84.4398 113.995L99.973 111.254L105.455 94.8067C105.455 94.8067 96.3181 81.101 96.3181 75.6187L63.4243 84.7558Z" fill="#D0CDE1"/>
<path d="M143.96 104.534L143.712 105.107C136.948 120.493 125.221 133.166 110.405 141.101C95.5896 149.035 78.541 151.773 61.9859 148.875C61.5355 148.795 61.0858 148.712 60.6368 148.626C55.9977 147.727 51.455 146.388 47.0702 144.626C46.358 144.339 45.6509 144.043 44.9489 143.736C44.4697 143.527 43.9904 143.312 43.5155 143.09C39.2114 141.096 35.1064 138.698 31.2559 135.928L27.7899 125.874L29.7381 124.387L33.7455 121.327L38.0214 118.063L39.1331 117.213L55.9105 104.405L57.1486 103.46L65.8691 96.8034L65.8713 96.8012C65.8713 96.8012 75.3018 112.167 89.0081 107.599C102.714 103.03 102.415 89.9292 102.415 89.9292L143.96 104.534Z" fill="#2F2E41"/>
<path d="M49.4901 38.8128C49.4901 38.8128 58.7733 18.6991 76.5662 23.3407C94.3591 27.9823 104.416 34.9447 105.19 41.9072C105.963 48.8696 104.803 59.3133 104.803 59.3133C104.803 59.3133 102.869 45.0016 90.4911 48.096C78.1134 51.1904 58.7733 48.8696 58.7733 48.8696L55.6789 76.7194C55.6789 76.7194 52.1977 71.6909 48.3297 74.7854C44.4617 77.8798 37.1124 45.0016 49.4901 38.8128Z" fill="#2F2E41"/>
<path d="M47.0702 144.626C46.3579 144.34 45.6508 144.043 44.9489 143.736C44.4696 143.527 43.9903 143.312 43.5155 143.09C36.3969 139.789 29.839 135.394 24.0798 130.065C26.119 127.287 27.7899 125.874 27.7899 125.874H41.4963L43.551 132.783L47.0702 144.626Z" fill="#2F2E41"/>
<path d="M131.954 103.03L143.712 105.106C140.565 112.275 136.316 118.906 131.117 124.76L131.954 103.03Z" fill="#2F2E41"/>
</g>
<defs>
<clipPath id="clip0">
<rect width="150" height="150" fill="white"/>
</clipPath>
</defs>
</svg>
