<svg width="1153" height="615" viewBox="0 0 1153 615" fill="none" xmlns="http://www.w3.org/2000/svg">
<g clip-path="url(#clip0)">
<path d="M53.9294 613.229L54.1686 611.967C54.2216 611.689 59.6645 584.047 80.0676 568.007C100.472 551.966 128.594 553.222 128.875 553.236L130.157 553.302L129.918 554.564C129.865 554.842 124.422 582.483 104.019 598.524C83.6146 614.565 55.4928 613.309 55.2116 613.295L53.9294 613.229ZM81.4512 569.77C64.2002 583.332 57.9886 605.506 56.6594 611.082C62.3885 611.107 85.4008 610.31 102.635 596.761C119.867 583.213 126.093 561.028 127.427 555.449C121.694 555.424 98.6845 556.222 81.4512 569.77Z" fill="#F1F1F1"/>
<path d="M89.5653 575.921C80.2186 600.017 55.6133 612.934 55.6133 612.934C55.6133 612.934 46.162 586.784 55.5088 562.688C64.8555 538.592 89.4608 525.675 89.4608 525.675C89.4608 525.675 98.9121 551.825 89.5653 575.921Z" fill="#F1F1F1"/>
<path d="M1119.16 613.295C1118.87 613.309 1090.75 614.565 1070.35 598.524C1049.95 582.483 1044.5 554.842 1044.45 554.564L1044.21 553.302L1045.49 553.236C1045.77 553.222 1073.9 551.966 1094.3 568.007C1114.7 584.047 1120.15 611.689 1120.2 611.967L1120.44 613.229L1119.16 613.295ZM1046.94 555.449C1048.27 561.028 1054.5 583.213 1071.73 596.761C1088.97 610.31 1111.98 611.107 1117.71 611.082C1116.38 605.506 1110.17 583.332 1092.92 569.77C1075.68 556.222 1052.67 555.424 1046.94 555.449H1046.94Z" fill="#F1F1F1"/>
<path d="M1084.8 575.921C1094.15 600.017 1118.75 612.934 1118.75 612.934C1118.75 612.934 1128.21 586.784 1118.86 562.688C1109.51 538.592 1084.91 525.675 1084.91 525.675C1084.91 525.675 1075.46 551.825 1084.8 575.921Z" fill="#F1F1F1"/>
<path d="M660.845 607.467L644.503 600.581L633.292 518.59H484.005L471.854 600.246L457.234 607.562C456.534 607.912 455.973 608.488 455.642 609.197C455.31 609.906 455.228 610.706 455.408 611.468C455.587 612.23 456.019 612.909 456.632 613.395C457.245 613.88 458.005 614.145 458.787 614.145H659.498C660.299 614.145 661.076 613.867 661.696 613.359C662.317 612.851 662.742 612.144 662.901 611.358C663.06 610.571 662.941 609.754 662.567 609.045C662.192 608.336 661.583 607.779 660.845 607.467Z" fill="#E6E6E6"/>
<path d="M926.138 529.498H192.799C188.951 529.489 185.264 527.954 182.547 525.228C179.829 522.501 178.303 518.808 178.303 514.957V411.459H940.634V514.957C940.634 518.808 939.108 522.501 936.39 525.227C933.672 527.953 929.985 529.489 926.138 529.498Z" fill="#CCCCCC"/>
<path d="M941.4 460.375H177.633V17.5289C177.639 12.8815 179.486 8.42599 182.769 5.13982C186.053 1.85365 190.505 0.00520911 195.148 0H923.885C928.529 0.00520606 932.981 1.85364 936.264 5.1398C939.548 8.42596 941.395 12.8815 941.4 17.5289V460.375Z" fill="#3F3D56"/>
<path d="M895.784 428.233H223.25C219.67 428.229 216.238 426.804 213.707 424.271C211.175 421.737 209.752 418.302 209.748 414.719V45.6554C209.752 42.0725 211.175 38.6374 213.707 36.1039C216.238 33.5703 219.67 32.1451 223.25 32.141H895.784C899.364 32.1451 902.796 33.5703 905.327 36.1039C907.858 38.6374 909.282 42.0725 909.286 45.6554V414.719C909.282 418.302 907.858 421.737 905.327 424.271C902.796 426.804 899.364 428.229 895.784 428.233Z" fill="white"/>
<path d="M1151.29 615H1.77849C1.39137 615.008 1.01241 614.888 0.700647 614.658C0.388886 614.429 0.161832 614.102 0.0548667 613.73C-0.0119131 613.476 -0.0196858 613.211 0.0321393 612.954C0.0839645 612.697 0.194002 612.455 0.353799 612.247C0.513596 612.039 0.718885 611.871 0.953869 611.755C1.18885 611.639 1.44727 611.579 1.70923 611.579H1151.15C1151.56 611.564 1151.96 611.689 1152.29 611.932C1152.62 612.175 1152.85 612.522 1152.96 612.917C1153.02 613.167 1153.01 613.426 1152.96 613.676C1152.9 613.926 1152.79 614.159 1152.62 614.359C1152.46 614.559 1152.26 614.72 1152.03 614.831C1151.8 614.942 1151.55 615 1151.29 615Z" fill="#CCCCCC"/>
<path d="M356.561 171.716H245.908V182.116H356.561V171.716Z" fill="#E5E5E5"/>
<path d="M356.561 196.938H245.908V207.339H356.561V196.938Z" fill="#E5E5E5"/>
<path d="M356.561 222.718H245.908V233.118H356.561V222.718Z" fill="#E5E5E5"/>
<path d="M356.561 248.497H245.908V258.898H356.561V248.497Z" fill="#E5E5E5"/>
<path d="M330.352 281.255H272.117V290.281H330.352V281.255Z" fill="#BB5A30"/>
<path d="M528.743 236.221H527.685V239.398H528.743V236.221Z" fill="#E5E5E5"/>
<path d="M528.743 307.087H527.685V300.318H528.743V307.087ZM528.743 293.549H527.685V286.78H528.743V293.549ZM528.743 280.011H527.685V273.242H528.743V280.011ZM528.743 266.474H527.685V259.705H528.743V266.474ZM528.743 252.936H527.685V246.167H528.743V252.936Z" fill="#E5E5E5"/>
<path d="M528.743 313.855H527.685V317.032H528.743V313.855Z" fill="#E5E5E5"/>
<path d="M644.6 236.221H643.542V239.398H644.6V236.221Z" fill="#E5E5E5"/>
<path d="M644.6 307.087H643.542V300.318H644.6V307.087ZM644.6 293.549H643.542V286.78H644.6V293.549ZM644.6 280.011H643.542V273.242H644.6V280.011ZM644.6 266.474H643.542V259.705H644.6V266.474ZM644.6 252.936H643.542V246.167H644.6V252.936Z" fill="#E5E5E5"/>
<path d="M644.6 313.855H643.542V317.032H644.6V313.855Z" fill="#E5E5E5"/>
<path d="M703.042 174.073H701.984V177.25H703.042V174.073Z" fill="#E5E5E5"/>
<path d="M703.042 307.351H701.984V300.846H703.042V307.351ZM703.042 294.341H701.984V287.835H703.042V294.341ZM703.042 281.33H701.984V274.826H703.042V281.33ZM703.042 268.321H701.984V261.816H703.042V268.321ZM703.042 255.311H701.984V248.805H703.042V255.311ZM703.042 242.3H701.984V235.795H703.042V242.3ZM703.042 229.29H701.984V222.785H703.042V229.29ZM703.042 216.28H701.984V209.776H703.042V216.28ZM703.042 203.27H701.984V196.765H703.042V203.27ZM703.042 190.26H701.984V183.755H703.042V190.26Z" fill="#E5E5E5"/>
<path d="M703.042 313.855H701.984V317.032H703.042V313.855Z" fill="#E5E5E5"/>
<path d="M760.901 148.659H759.843V151.835H760.901V148.659Z" fill="#E5E5E5"/>
<path d="M760.901 307.375H759.843V300.894H760.901V307.375ZM760.901 294.413H759.843V287.932H760.901V294.413ZM760.901 281.452H759.843V274.971H760.901V281.452ZM760.901 268.49H759.843V262.009H760.901V268.49ZM760.901 255.528H759.843V249.048H760.901V255.528ZM760.901 242.567H759.843V236.086H760.901V242.567ZM760.901 229.605H759.843V223.124H760.901V229.605ZM760.901 216.644H759.843V210.163H760.901V216.644ZM760.901 203.682H759.843V197.201H760.901V203.682ZM760.901 190.721H759.843V184.24H760.901V190.721ZM760.901 177.759H759.843V171.278H760.901V177.759ZM760.901 164.797H759.843V158.316H760.901V164.797Z" fill="#E5E5E5"/>
<path d="M760.901 313.855H759.843V317.032H760.901V313.855Z" fill="#E5E5E5"/>
<path d="M586.936 193.664H585.878V196.841H586.936V193.664Z" fill="#E5E5E5"/>
<path d="M586.936 307.697H585.878V301.538H586.936V307.697ZM586.936 295.38H585.878V289.221H586.936V295.38ZM586.936 283.062H585.878V276.904H586.936V283.062ZM586.936 270.745H585.878V264.586H586.936V270.745ZM586.936 258.428H585.878V252.269H586.936V258.428ZM586.936 246.11H585.878V239.952H586.936V246.11ZM586.936 233.793H585.878V227.634H586.936V233.793ZM586.936 221.476H585.878V215.317H586.936V221.476ZM586.936 209.158H585.878V203H586.936V209.158Z" fill="#E5E5E5"/>
<path d="M586.936 313.855H585.878V317.032H586.936V313.855Z" fill="#E5E5E5"/>
<path d="M819.585 318.507H469.304C469.013 318.507 468.734 318.392 468.528 318.186C468.323 317.98 468.207 317.701 468.207 317.41V149.378C468.207 149.087 468.323 148.808 468.528 148.602C468.734 148.397 469.013 148.281 469.304 148.281C469.594 148.281 469.873 148.397 470.079 148.602C470.284 148.808 470.4 149.087 470.4 149.378V316.313H819.585C819.876 316.313 820.155 316.429 820.36 316.634C820.566 316.84 820.681 317.119 820.681 317.41C820.681 317.701 820.566 317.98 820.36 318.186C820.155 318.392 819.876 318.507 819.585 318.507V318.507Z" fill="#3F3D56"/>
<path d="M644.552 237.696L586.313 194.038L528.871 237.099L527.556 235.343L586.313 191.296L644.275 234.747L701.872 171.663L702.104 171.568L760.203 148.139L761.022 150.176L703.154 173.511L644.552 237.696Z" fill="#3F3D56"/>
<path d="M528.214 242.804C531.846 242.804 534.791 239.857 534.791 236.221C534.791 232.586 531.846 229.638 528.214 229.638C524.581 229.638 521.636 232.586 521.636 236.221C521.636 239.857 524.581 242.804 528.214 242.804Z" fill="#BB5A30"/>
<path d="M586.313 200.015C589.946 200.015 592.891 197.068 592.891 193.433C592.891 189.797 589.946 186.85 586.313 186.85C582.681 186.85 579.736 189.797 579.736 193.433C579.736 197.068 582.681 200.015 586.313 200.015Z" fill="#BB5A30"/>
<path d="M644.413 242.804C648.046 242.804 650.991 239.857 650.991 236.221C650.991 232.586 648.046 229.638 644.413 229.638C640.781 229.638 637.836 232.586 637.836 236.221C637.836 239.857 640.781 242.804 644.413 242.804Z" fill="#BB5A30"/>
<path d="M702.513 179.17C706.145 179.17 709.09 176.222 709.09 172.587C709.09 168.951 706.145 166.004 702.513 166.004C698.88 166.004 695.936 168.951 695.936 172.587C695.936 176.222 698.88 179.17 702.513 179.17Z" fill="#BB5A30"/>
<path d="M760.613 155.032C764.245 155.032 767.19 152.085 767.19 148.449C767.19 144.814 764.245 141.866 760.613 141.866C756.98 141.866 754.035 144.814 754.035 148.449C754.035 152.085 756.98 155.032 760.613 155.032Z" fill="#BB5A30"/>
<path d="M391.145 32.1407H388.905V428.233H391.145V32.1407Z" fill="#E5E5E5"/>
<path d="M919.174 424.179C919.947 423.258 920.509 422.178 920.821 421.015C921.132 419.852 921.185 418.636 920.975 417.45C920.766 416.265 920.3 415.14 919.609 414.155C918.918 413.17 918.02 412.348 916.978 411.748L922.445 383.006L908.423 388.855L905.381 415.251C904.489 417.071 904.295 419.154 904.836 421.107C905.377 423.06 906.615 424.747 908.315 425.847C910.015 426.948 912.06 427.386 914.061 427.078C916.062 426.771 917.881 425.739 919.174 424.179Z" fill="#FFB7B7"/>
<path d="M989.09 600.543H977.217L971.568 554.708L989.092 554.709L989.09 600.543Z" fill="#FFB7B7"/>
<path d="M992.117 612.063L953.833 612.061V611.577C953.834 607.621 955.404 603.828 958.198 601.031C960.993 598.235 964.783 596.663 968.734 596.663H968.735L992.118 596.664L992.117 612.063Z" fill="#2F2E41"/>
<path d="M924.203 600.543H912.33L906.681 554.708L924.205 554.709L924.203 600.543Z" fill="#FFB7B7"/>
<path d="M924.325 612.063L886.041 612.061V611.577C886.042 607.621 887.612 603.828 890.406 601.031C893.201 598.235 896.991 596.663 900.942 596.663H900.943L924.326 596.664L924.325 612.063Z" fill="#2F2E41"/>
<path d="M923.23 406.958L911.609 433.754L902.021 587.773L926.233 586.803L932.846 513.382L953.244 447.988L964.972 520.892L969.814 584.864L989.848 585.733L997.83 406.958H923.23Z" fill="#2F2E41"/>
<path d="M981.322 274.733L947.639 275.576L927.864 285.737L926.779 360.698L914.445 412.453C914.445 412.453 991.506 417.761 1002.16 410.007L989.569 350.881L1006.46 286.983L981.322 274.733Z" fill="#BB5A30"/>
<path d="M931.462 286.909L927.864 285.737C927.864 285.737 916.451 293.068 917.536 310.792C917.536 310.792 917.109 319.963 917.517 326.067C917.986 333.068 903.959 402.64 903.959 402.64H924.296L933.012 339.637L931.462 286.909Z" fill="#BB5A30"/>
<path d="M1005.93 425.149C1005.15 424.227 1004.59 423.147 1004.28 421.984C1003.97 420.822 1003.92 419.605 1004.13 418.42C1004.33 417.234 1004.8 416.109 1005.49 415.124C1006.18 414.139 1007.08 413.317 1008.12 412.717L1002.66 383.975L1016.68 389.824L1019.72 416.221C1020.61 418.04 1020.81 420.124 1020.26 422.077C1019.72 424.029 1018.49 425.716 1016.79 426.816C1015.09 427.917 1013.04 428.355 1011.04 428.047C1009.04 427.74 1007.22 426.709 1005.93 425.149Z" fill="#FFB7B7"/>
<path d="M1001.39 287.878L1004.98 286.706C1004.98 286.706 1016.4 294.037 1015.31 311.761C1015.31 311.761 1015.74 320.933 1015.33 327.036C1014.86 334.038 1021.14 403.609 1021.14 403.609H1000.8L992.088 340.606L1001.39 287.878Z" fill="#BB5A30"/>
<path d="M989.59 243.284C989.59 247.906 988.221 252.424 985.655 256.267C983.09 260.11 979.443 263.105 975.176 264.874C970.91 266.643 966.215 267.106 961.686 266.204C957.156 265.302 952.996 263.077 949.73 259.808C946.465 256.54 944.241 252.376 943.34 247.843C942.439 243.31 942.901 238.611 944.669 234.341C946.436 230.07 949.429 226.421 953.269 223.853C957.108 221.285 961.623 219.914 966.241 219.914C969.3 219.907 972.33 220.502 975.158 221.667C977.987 222.831 980.559 224.542 982.727 226.701C984.896 228.86 986.618 231.426 987.795 234.251C988.973 237.076 989.583 240.106 989.59 243.167C989.59 243.206 989.59 243.245 989.59 243.284Z" fill="#FFB7B7"/>
<path d="M942.969 211.894C945.704 206.008 950.997 207.172 955.627 209.167C961.489 207.866 967.065 203.969 973.381 206.273C979.603 215.331 1000.49 212.666 996.048 227.411C996.042 230.944 1002.69 228.887 1001.53 234.674C1005.05 245.81 988.817 266.9 979.497 262.459C981.802 258.231 987.068 248.628 979.082 247.675C961.902 263.674 977.309 217.211 955.723 230.723C948.576 237.269 938.792 218.442 942.969 211.894Z" fill="#2F2E41"/>
</g>
<defs>
<clipPath id="clip0">
<rect width="1153" height="615" fill="white"/>
</clipPath>
</defs>
</svg>
